<?xml version="1.0" encoding="UTF-8" standalone="no"?>
<!-- Created with Inkscape (http://www.inkscape.org/) -->

<svg
   xmlns:dc="http://purl.org/dc/elements/1.1/"
   xmlns:cc="http://creativecommons.org/ns#"
   xmlns:rdf="http://www.w3.org/1999/02/22-rdf-syntax-ns#"
   xmlns:svg="http://www.w3.org/2000/svg"
   xmlns="http://www.w3.org/2000/svg"
   xmlns:sodipodi="http://sodipodi.sourceforge.net/DTD/sodipodi-0.dtd"
   xmlns:inkscape="http://www.inkscape.org/namespaces/inkscape"
   id="svg2"
   version="1.1"
   inkscape:version="0.48.5 r10040"
   width="103.90125"
   height="35.767502"
   xml:space="preserve"
   sodipodi:docname="dow-chemical-logo-vector.eps"><metadata
     id="metadata8"><rdf:RDF><cc:Work
         rdf:about=""><dc:format>image/svg+xml</dc:format><dc:type
           rdf:resource="http://purl.org/dc/dcmitype/StillImage" /><dc:title></dc:title></cc:Work></rdf:RDF></metadata><defs
     id="defs6" /><sodipodi:namedview
     pagecolor="#ffffff"
     bordercolor="#666666"
     borderopacity="1"
     objecttolerance="10"
     gridtolerance="10"
     guidetolerance="10"
     inkscape:pageopacity="0"
     inkscape:pageshadow="2"
     inkscape:window-width="640"
     inkscape:window-height="480"
     id="namedview4"
     showgrid="false"
     fit-margin-top="0"
     fit-margin-left="0"
     fit-margin-right="0"
     fit-margin-bottom="0"
     inkscape:zoom="0.51685728"
     inkscape:cx="51.949994"
     inkscape:cy="-190.82124"
     inkscape:window-x="0"
     inkscape:window-y="0"
     inkscape:window-maximized="0"
     inkscape:current-layer="g12" /><g
     id="g10"
     inkscape:groupmode="layer"
     inkscape:label="ink_ext_XXXXXX"
     transform="matrix(1.25,0,0,-1.25,-284.7,453.17625)"><g
       id="g12"
       transform="scale(0.1,0.1)"><path
         d="m 2563.45,3517.66 c -19.62,0 -44.74,0 -44.74,0 l 0,-65.04 c 0,0 24.99,0 44.74,0 11.11,0 25.11,10.72 25.06,31.61 -0.03,21.68 -16.28,33.43 -25.06,33.43"
         style="fill:#ee2a3d;fill-opacity:1;fill-rule:nonzero;stroke:none"
         id="path14"
         inkscape:connector-curvature="0" /><path
         d="m 2691.38,3501.8 c -20.57,0 -33.96,-12.84 -33.96,-28.76 0,-15.9 13.39,-28.77 33.96,-28.77 20.6,0 33.97,12.87 33.97,28.77 0,15.91 -13.37,28.76 -33.97,28.76"
         style="fill:#ee2a3d;fill-opacity:1;fill-rule:nonzero;stroke:none"
         id="path16"
         inkscape:connector-curvature="0" /><path
         d="m 2928.2,3512.62 c -2.55,-0.53 -4.23,-1.77 -5.25,-3.14 -0.05,-0.08 -32.59,-72.86 -32.59,-72.86 -0.1,-2.95 -0.05,-4.42 6.78,-4.42 l 0,-6.36 -45.02,-0.35 0,6.5 c 4.37,0 5.58,1.23 5.58,4.74 0,1.39 -15.7,41.49 -15.7,41.49 l -18.36,-40.01 c -0.44,-0.49 -0.53,-1.01 -0.53,-1.57 0,-3.69 1.9,-4.65 7.03,-4.65 0,0 0,0 0.04,0 l 0,-6.5 -48.56,0.19 0,6.55 c 3.96,0.1 7.32,0.77 7.32,4.64 0,0.78 0,1.49 -0.27,2.17 l -27.06,69.99 c 0,0.03 0.07,0.09 0.05,0.13 -1.21,2.19 -0.74,3.78 -7.78,3.78 l 0,6.69 44.45,0 0,-6.68 c -3.46,0 -5.71,-0.29 -5.71,-3.79 l -0.22,0 15.15,-44.69 18.65,52.21 15.8,0 15.06,0.08 20.15,-54.44 17.78,46.64 c 0,2.03 -0.74,3.7 -6.35,3.8 -0.16,0.01 -1.25,0.01 -1.48,0.01 l 0,6.89 45.61,0.18 0,-7.1 c 0.01,0.02 -3.73,0.03 -4.57,-0.12 z m -236.91,-89.6 c -36.42,0 -60.35,19.93 -60.35,51.39 0,28.27 23.7,51.34 60.35,51.34 36.45,0 60.33,-22.98 60.33,-51.34 0,-31.46 -23.88,-51.39 -60.33,-51.39 z m -125.44,4.48 c -19.79,0 -85.51,0 -85.51,0 l 0,6.17 c 6.56,0.08 11.86,1.82 11.86,4.02 l 0.32,0 0,94.26 c 0.03,0.1 0.13,0.15 0.13,0.19 0,0.11 -0.1,0.16 -0.13,0.26 l 0,0.16 -0.07,0 c -0.64,2.03 -5.68,3.65 -12.01,3.65 -0.05,0 -0.07,0 -0.09,0 l 0,5.54 c 0,0 65.88,0 85.5,0 21.69,0 46.91,-26.96 46.91,-58.02 0,-33.59 -28.5,-56.23 -46.91,-56.23 z m 124.57,197.91 -412.82,-140.25 412.82,-145.89 418.39,144.95 -418.39,141.19"
         style="fill:#ee2a3d;fill-opacity:1;fill-rule:nonzero;stroke:none"
         id="path18"
         inkscape:connector-curvature="0" /><path
         d="m 2518.71,3517.43 c 0,0 25.12,0 44.74,0 8.78,0 25.03,-11.74 25.06,-33.44 0.04,-20.88 -13.94,-31.59 -25.06,-31.59 -19.75,0 -44.74,0 -44.74,0 l 0,65.03 z m -26.18,-79.95 -0.32,0 c 0,-2.21 -5.31,-3.95 -11.86,-4.02 l 0,-6.18 c 0,0 65.72,0 85.5,0 18.42,0 46.91,22.66 46.91,56.24 0,31.07 -25.22,58.03 -46.91,58.03 -19.61,0 -85.5,0 -85.5,0 l 0,-5.55 c 0.02,0 0.05,0 0.09,0 6.33,0 11.37,-1.62 12.02,-3.65 l 0.07,0 0,-0.16 c 0.03,-0.09 0.13,-0.14 0.13,-0.26 0,-0.04 -0.1,-0.09 -0.13,-0.19 l 0,-94.26"
         style="fill:#ffffff;fill-opacity:1;fill-rule:nonzero;stroke:none"
         id="path20"
         inkscape:connector-curvature="0" /><path
         d="m 2657.42,3472.82 c 0,15.93 13.39,28.77 33.96,28.77 20.6,0 33.97,-12.84 33.97,-28.77 0,-15.89 -13.37,-28.76 -33.97,-28.76 -20.56,0 -33.96,12.87 -33.96,28.76 z m 94.2,1.38 c 0,28.34 -23.9,51.33 -60.33,51.33 -36.65,0 -60.35,-23.07 -60.35,-51.33 0,-29.18 20.59,-48.4 52.62,-51.04 l 15.47,0 c 32.04,2.64 52.59,21.86 52.59,51.04"
         style="fill:#ffffff;fill-opacity:1;fill-rule:nonzero;stroke:none"
         id="path22"
         inkscape:connector-curvature="0" /><path
         d="m 2890.38,3436.4 c 0,0 32.53,72.8 32.59,72.86 1,1.38 2.69,2.6 5.23,3.14 0.85,0.15 4.59,0.14 4.59,0.14 l 0,7.1 -45.62,-0.19 0,-6.89 c 0.24,0 1.32,0 1.49,-0.01 5.61,-0.1 6.34,-1.76 6.34,-3.8 l -17.78,-46.64 -20.15,54.44 -15.05,-0.08 -15.8,0 -18.65,-52.22 -15.15,44.7 0.23,0 c 0,3.5 2.24,3.79 5.69,3.79 l 0,6.69 -44.44,0 0,-6.69 c 7.03,0 6.57,-1.6 7.77,-3.79 0.03,-0.04 -0.05,-0.09 -0.05,-0.12 l 27.07,-70.01 c 0.27,-0.67 0.27,-1.36 0.27,-2.16 0,-3.86 -3.35,-4.55 -7.32,-4.64 l 0,-6.56 48.55,-0.17 0,6.48 c -0.03,0 -0.03,0 -0.03,0 -5.12,0 -7.04,0.96 -7.04,4.65 0,0.59 0.11,1.1 0.53,1.58 l 18.37,40.02 c 0,0 15.69,-40.11 15.69,-41.5 0,-3.5 -1.2,-4.75 -5.57,-4.75 l 0,-6.48 45.02,0.33 0,6.37 c -6.84,0 -6.9,1.46 -6.78,4.41"
         style="fill:#ffffff;fill-opacity:1;fill-rule:nonzero;stroke:none"
         id="path24"
         inkscape:connector-curvature="0" /></g></g></svg>