<?xml version="1.0" encoding="UTF-8" standalone="no"?>
<!-- Created with Inkscape (http://www.inkscape.org/) -->

<svg
   xmlns:dc="http://purl.org/dc/elements/1.1/"
   xmlns:cc="http://creativecommons.org/ns#"
   xmlns:rdf="http://www.w3.org/1999/02/22-rdf-syntax-ns#"
   xmlns:svg="http://www.w3.org/2000/svg"
   xmlns="http://www.w3.org/2000/svg"
   xmlns:sodipodi="http://sodipodi.sourceforge.net/DTD/sodipodi-0.dtd"
   xmlns:inkscape="http://www.inkscape.org/namespaces/inkscape"
   id="svg2"
   version="1.1"
   inkscape:version="0.48.4 r9939"
   width="360.01736"
   height="134.9975"
   xml:space="preserve"
   sodipodi:docname="FLO_PMS.EPS"><metadata
     id="metadata8"><rdf:RDF><cc:Work
         rdf:about=""><dc:format>image/svg+xml</dc:format><dc:type
           rdf:resource="http://purl.org/dc/dcmitype/StillImage" /><dc:title></dc:title></cc:Work></rdf:RDF></metadata><defs
     id="defs6" /><sodipodi:namedview
     pagecolor="#ffffff"
     bordercolor="#666666"
     borderopacity="1"
     objecttolerance="10"
     gridtolerance="10"
     guidetolerance="10"
     inkscape:pageopacity="0"
     inkscape:pageshadow="2"
     inkscape:window-width="1600"
     inkscape:window-height="838"
     id="namedview4"
     showgrid="false"
     fit-margin-top="0"
     fit-margin-left="0"
     fit-margin-right="0"
     fit-margin-bottom="0"
     inkscape:zoom="1.5470345"
     inkscape:cx="180.00869"
     inkscape:cy="-75.405053"
     inkscape:window-x="-8"
     inkscape:window-y="-8"
     inkscape:window-maximized="1"
     inkscape:current-layer="g10" /><g
     id="g10"
     inkscape:groupmode="layer"
     inkscape:label="ink_ext_XXXXXX"
     transform="matrix(1.25,0,0,-1.25,-44.992625,423.9975)"><g
       id="g12"
       transform="scale(0.1,0.1)"><path
         d="m 1800,3391.98 c -799.32,0 -1440.059,-239.59 -1440.059,-539.98 0,-298.56 646.019,-540 1440.059,-540 794.06,0 1440.08,242.25 1440.08,540 0,297.75 -646.02,539.98 -1440.08,539.98"
         style="fill:#114781;fill-opacity:1;fill-rule:nonzero;stroke:none"
         id="path14"
         inkscape:connector-curvature="0" /><path
         d="m 2646.02,3006.89 c 1.87,3.3 -0.1,5.71 -4.26,5.71 -21.7,0 -50.17,-0.05 -72.78,-0.05 -5.39,0 -8.17,-0.66 -10.71,-5.66 -8.34,-15.99 -110.05,-168.41 -128.98,-198 -3.18,-4.51 -7.08,-3.89 -7.53,1.25 -1.92,17.57 -17.1,37.78 -41.02,47.45 -18.23,7.4 -36.05,8.74 -54.58,6.28 -33.45,-4.49 -63.25,-22.15 -89.45,-42.05 -39.49,-30.02 -73.56,-68.93 -117.54,-97.68 -24.01,-15.64 -56.88,-29.3 -78.89,-8.93 -19.91,18.46 -17.66,59.47 12.79,91.18 3.22,3.32 7.07,0.54 6.46,-2.44 -2.87,-14.35 0.67,-28.61 11.54,-38.61 13.29,-11.9 32.31,-13.26 48.59,-5.31 19.21,9.52 30.5,27.9 33.79,48.76 5.1,32.36 -19.82,60.91 -50.99,63.19 -25.32,1.78 -49.6,-7.03 -73.26,-26.56 -11.86,-9.83 -18.6,-17.11 -28.86,-31.7 -2.5,-3.58 -6.34,-3.95 -6.22,1.35 1.19,41.43 -15.96,64.75 -50.21,65.5 -26.59,0.63 -54.99,-13.78 -77.13,-31.44 -24.27,-19.49 -45.49,-45.32 -68.23,-69.59 -2.84,-2.99 -5.31,-2.85 -6.1,2.95 -0.68,27.45 -7.59,54.04 -20.29,72.92 -4.5,6.57 -13.95,9.82 -21.9,5.38 -3.67,-2.01 -16.46,-7.88 -25.74,-15.37 -4.62,-3.8 -6.41,-9.3 -4.39,-16.35 12.28,-41 9.57,-87.63 -7.06,-127.02 -15.27,-36.07 -44.97,-68.6 -79.86,-79.61 -22.99,-7.28 -46.9,-3.72 -61.69,16.66 -20.31,28.13 -12.11,77.05 18.16,117.68 26.73,35.76 65.37,58.49 103.93,73.11 4.54,1.75 5.47,4.66 4.19,8.52 -2.1,6.35 -5.43,14.97 -6.81,18.91 -3.53,9.41 -13.44,10.94 -25.52,9.62 -28.01,-3.26 -53.28,-12.86 -78.24,-26.22 -65.35,-35 -98.12,-102.74 -112.5,-138.98 -6.9,-17.4 -12.82,-28.27 -20.46,-37.9 -10.31,-12.95 -23.23,-24.74 -46.89,-45.51 -2.14,-1.9 -3.73,-5.88 -1.93,-9.57 2.41,-5 14.71,-22.36 18.18,-23.92 3.85,-1.89 8.32,0.76 10.11,2.05 16.55,11.22 36.35,28.99 46.05,41.05 3.39,4.13 6.88,2.39 8.68,-3.88 9.05,-32.26 32.73,-58.6 65.47,-69.62 59.93,-20.21 122.1,9.04 169.01,59.97 29.83,32.37 40.59,53.19 52.01,67.34 19.36,24 57.58,77.69 103.09,112.16 16.68,12.71 36.44,22.41 46.38,15.97 7.96,-5.15 10.54,-17.17 -2.25,-40.43 -46.4,-84.72 -114.67,-184.27 -127.19,-208.41 -2.29,-4.19 -0.29,-7.49 4.09,-7.49 24.28,0.12 48.35,0.06 70.39,0.06 3.67,0.18 5.32,1.85 7.15,4.44 35.61,55.74 69.12,108.8 105.04,163.64 2.01,3.23 3.87,0.73 3.95,-0.68 0.74,-12.73 3.86,-30.14 11.41,-41.57 13.58,-21.13 32.82,-30.21 54.16,-30.35 16.98,-0.19 25.57,2.39 43.88,9.22 14.9,5.53 26.87,12.78 36.05,19.35 5.35,3.72 6.29,-2.51 6.16,-3.47 -8.24,-44.25 1.93,-96.68 45.91,-118.42 52.63,-25.95 110.45,10.52 143.72,43.45 3.26,3.17 6.75,2.84 7.08,-3.99 0.71,-12.57 6.39,-27.5 16.79,-37.93 27.88,-27.98 84.14,-16.9 140.6,26.8 36.25,27.98 74.18,67.51 108.44,109.38 1.28,1.61 2.22,4.22 -0.23,6.85 -5.22,5.46 -12.77,11.71 -17.94,16.53 -2.36,2 -5.82,1.42 -7.81,-0.08 -35.12,-33.4 -66.73,-71.49 -112.42,-102.99 -15.41,-10.75 -39.96,-19.43 -51,-4.5 -4.3,5.79 -3.81,13.82 0.43,24.33 13.32,33.23 224.23,354.33 235.18,373.27 z m -278.79,-269.28 c 0.43,-2.46 3.63,-4.84 6.77,-5.97 1.1,-0.41 1.72,-1.21 0.47,-3.79 -8.97,-19.22 -17.21,-30.3 -28.45,-47 -10.34,-15.43 -21.99,-27.47 -36.09,-39.04 -21.27,-17.61 -50.81,-36.77 -75.23,-23.89 -10.85,5.63 -15.54,20.81 -15.32,33.1 0.56,34.57 15.89,70.05 44.27,104.92 34.61,42.61 72.87,64.7 97.98,52.63 25.98,-12.4 17.69,-42.48 6.07,-66.09 -0.88,-1.83 -0.93,-3.38 -0.47,-4.87"
         style="fill:#ffffff;fill-opacity:1;fill-rule:nonzero;stroke:none"
         id="path16"
         inkscape:connector-curvature="0" /><path
         d="m 1116.16,2554.82 c -78.64,-0.57 -147.922,48.04 -155.867,132.17 -4.418,46.62 8.762,88.17 35.137,122.4 23.41,30.5 63.02,55.84 96.55,62.04 10.91,2 25.57,0.72 31.63,-6.5 9.51,-11.06 6.77,-23.21 -2.73,-28.07 -25.58,-13.06 -56.36,-35.41 -71.59,-65.94 -12.36,-24.92 -14.85,-54.96 4.01,-83.56 31.59,-47.69 119.62,-49 201.47,27.04 20.27,18.61 38.41,36.49 56.85,57.67 36.05,41.22 48.04,56.24 95.96,122.72 0.57,0.76 0.73,1.77 0.48,2.26 -0.4,0.85 -1.07,1.09 -2.46,1.17 -31.99,-0.88 -59.88,-10.42 -86.99,-30.68 -7.81,-5.68 -19.04,-4.88 -23.96,2.61 -5.47,8.46 -1.55,19.51 7.46,25.73 43.61,30.33 91.25,35.83 139.9,44.04 -0.04,0 3.38,-0.16 6.17,3.54 19.96,25.62 35.05,48.75 56.33,74.67 21.44,26.3 49.17,50.44 70.34,68.58 29.55,25.42 48.49,33.96 67.75,44.45 5.07,2.64 -0.65,5.82 -2.19,5.82 -107.53,20.2 -219.3,46.36 -326.1,6.81 -73.95,-27.6 -106.36,-86.25 -90.76,-125.44 11.08,-27.79 47.65,-32.31 81.87,-15.57 28.43,13.94 54.73,36.38 73.38,65.29 10.45,16.04 32.43,4.47 20.56,-23.4 -31.25,-73.46 -90.96,-131.72 -163.68,-134.17 -61.89,-2.02 -101.82,43.52 -101.69,99.69 0.23,110.79 123.59,183.76 253.21,194.67 156.1,12.91 303.95,-28.67 458.94,-47.48 118.75,-14.37 232.6,-14.68 351.96,12.75 14.11,3.06 24.01,-5.95 23.09,-20.19 -1.17,-20.61 -17.12,-40.44 -56.43,-61.89 -44.71,-24.52 -91.48,-31.95 -140.33,-32.35 -118.12,-0.98 -228.15,45.06 -342.01,69.8 0.16,-4.98 1.44,-10.93 -2.74,-14.07 -63.06,-46.53 -120.07,-93.77 -158.26,-160.11 -1.29,-1.53 -0.59,-3 1.64,-2.84 33.15,1.75 62.96,2.61 93.92,5.09 5.4,0.45 5.6,1.79 5.13,5.75 -2.73,22.87 3.94,48.94 24.06,66.88 20.58,18.47 46.37,20.57 63.46,7.27 19.44,-15.15 17.72,-42.38 7.08,-62.79 -10.82,-20.73 -28.68,-31.8 -45.83,-37.18 0,0 -3.59,-0.8 -3.07,-4.06 0.68,-5.23 24.04,-18.18 26.04,-21.63 1.93,-3.28 0.94,-8.37 -2.62,-12.26 -2.48,-2.84 -6.34,-5.5 -11.3,-5.4 -4.02,0.08 -6.46,1.46 -11.57,4.24 -10.49,5.68 -23.59,15.01 -32.32,26.02 -2.99,3.72 -4.49,3.8 -11.93,3.4 -33.5,-1.93 -85.72,-6.99 -121.11,-11.41 -8.56,-1.06 -9.82,-2.67 -11.59,-5.63 -56.41,-93.03 -116.64,-193.34 -182.77,-260.5 -70.93,-72.01 -129.89,-90.97 -192.48,-91.45 z m 537.55,413.33 c 0.9,-4.77 2.76,-5.69 4.92,-5.29 10.74,2.15 22.51,11 29.45,21.23 6.36,9.29 9.33,22.7 3.04,28.07 -5.64,4.82 -14.78,3.45 -21.55,-2.53 -13.49,-11.93 -17.6,-28.85 -15.86,-41.48 l 0,0"
         style="fill:#ffffff;fill-opacity:1;fill-rule:nonzero;stroke:none"
         id="path18"
         inkscape:connector-curvature="0" /><path
         d="m 1799.97,2358.98 c -762.12,0 -1379.931,220.65 -1379.931,492.84 0,272.23 617.811,492.85 1379.931,492.85 762.05,0 1379.83,-220.62 1379.83,-492.85 0,-272.19 -617.78,-492.84 -1379.83,-492.84 z m 0,944.7 c -735.35,0 -1331.407,-203.21 -1331.407,-451.86 0,-248.67 596.057,-451.89 1331.407,-451.89 735.34,0 1331.36,203.22 1331.36,451.89 0,248.65 -596.02,451.86 -1331.36,451.86"
         style="fill:#ffffff;fill-opacity:1;fill-rule:nonzero;stroke:none"
         id="path20"
         inkscape:connector-curvature="0" /><g
         id="g22"
         transform="scale(10,10)" /></g></g></svg>