<?xml version="1.0" encoding="UTF-8" standalone="no"?>
<!-- Created with Inkscape (http://www.inkscape.org/) -->

<svg
   xmlns:dc="http://purl.org/dc/elements/1.1/"
   xmlns:cc="http://creativecommons.org/ns#"
   xmlns:rdf="http://www.w3.org/1999/02/22-rdf-syntax-ns#"
   xmlns:svg="http://www.w3.org/2000/svg"
   xmlns="http://www.w3.org/2000/svg"
   xmlns:sodipodi="http://sodipodi.sourceforge.net/DTD/sodipodi-0.dtd"
   xmlns:inkscape="http://www.inkscape.org/namespaces/inkscape"
   id="svg2"
   version="1.1"
   inkscape:version="0.48.5 r10040"
   width="360.01736"
   height="134.9975"
   xml:space="preserve"
   sodipodi:docname="FO_CMYK.EPS"><metadata
     id="metadata8"><rdf:RDF><cc:Work
         rdf:about=""><dc:format>image/svg+xml</dc:format><dc:type
           rdf:resource="http://purl.org/dc/dcmitype/StillImage" /><dc:title></dc:title></cc:Work></rdf:RDF></metadata><defs
     id="defs6"><clipPath
       clipPathUnits="userSpaceOnUse"
       id="clipPath20"><path
         d="m 1800.02,3370.41 c -783.41,0 -1417.969,-231.57 -1417.969,-518.11 0,-286.43 634.559,-518.08 1417.969,-518.08 783.49,0 1417.94,231.65 1417.94,518.08 0,286.54 -634.45,518.11 -1417.94,518.11"
         id="path22"
         inkscape:connector-curvature="0" /></clipPath><radialGradient
       fx="0"
       fy="0"
       cx="0"
       cy="0"
       r="0.95499998"
       gradientUnits="userSpaceOnUse"
       gradientTransform="matrix(0,606.303,621.784,0,178.951,-256.407)"
       spreadMethod="pad"
       id="radialGradient24"><stop
         style="stop-opacity:1;stop-color:#00050d"
         offset="0"
         id="stop26" /><stop
         style="stop-opacity:1;stop-color:#051125"
         offset="0.7"
         id="stop28" /><stop
         style="stop-opacity:1;stop-color:#173d7d"
         offset="0.904494"
         id="stop30" /><stop
         style="stop-opacity:1;stop-color:#4ca9e3"
         offset="1"
         id="stop32" /></radialGradient><clipPath
       clipPathUnits="userSpaceOnUse"
       id="clipPath40"><path
         d="m 495.32,2832.32 c 0,237.18 587.02,429.43 1311.13,429.43 666.12,0 1216.1,-162.69 1300.01,-373.34 -55.93,221.63 -619.45,395.72 -1306.54,395.72 -724.14,0 -1311.115,-193.37 -1311.115,-431.99 0,-19.41 3.906,-38.55 11.433,-57.32 -3.23,12.37 -4.918,24.86 -4.918,37.5"
         id="path42"
         inkscape:connector-curvature="0" /></clipPath><linearGradient
       x1="0"
       y1="0"
       x2="1"
       y2="0"
       gradientUnits="userSpaceOnUse"
       gradientTransform="matrix(0,109.755,264.565,0,47.4805,230.014)"
       spreadMethod="pad"
       id="linearGradient44"><stop
         style="stop-opacity:1;stop-color:#08142e"
         offset="0"
         id="stop46" /><stop
         style="stop-opacity:1;stop-color:#17326e"
         offset="0.808989"
         id="stop48" /><stop
         style="stop-opacity:1;stop-color:#0d69a9"
         offset="1"
         id="stop50" /></linearGradient><clipPath
       clipPathUnits="userSpaceOnUse"
       id="clipPath58"><path
         d="m 3149.94,2906.22 c 5.82,-17.75 8.79,-35.78 8.79,-54.08 0,-261.2 -608.37,-472.94 -1358.81,-472.94 -667.87,0 -1223.139,167.73 -1337.369,388.61 86.883,-230.1 656.849,-407.68 1347.119,-407.68 750.34,0 1358.58,209.88 1358.58,468.94 0,26.26 -6.26,52.07 -18.31,77.15"
         id="path60"
         inkscape:connector-curvature="0" /></clipPath><linearGradient
       x1="0"
       y1="0"
       x2="1"
       y2="0"
       gradientUnits="userSpaceOnUse"
       gradientTransform="matrix(0,109.758,273.37,0,44.8555,230.012)"
       spreadMethod="pad"
       id="linearGradient62"><stop
         style="stop-opacity:1;stop-color:#08142e"
         offset="0"
         id="stop64" /><stop
         style="stop-opacity:1;stop-color:#17326e"
         offset="0.808989"
         id="stop66" /><stop
         style="stop-opacity:1;stop-color:#0d69a9"
         offset="1"
         id="stop68" /></linearGradient><clipPath
       clipPathUnits="userSpaceOnUse"
       id="clipPath76"><path
         d="m 2053.07,2806.39 c -30.45,-31.71 -32.7,-72.72 -12.79,-91.18 7.13,-6.6 15.33,-9.64 24.08,-10.14 -13.02,16.48 -19.12,48.75 -2.99,74.32 -2.99,7.54 -3.56,16.08 -1.84,24.56 0.61,2.98 -3.24,5.76 -6.46,2.44"
         id="path78"
         inkscape:connector-curvature="0" /></clipPath><linearGradient
       x1="0"
       y1="0"
       x2="1"
       y2="0"
       gradientUnits="userSpaceOnUse"
       gradientTransform="matrix(0,76.0362,7.1982,0,200.637,248.874)"
       spreadMethod="pad"
       id="linearGradient80"><stop
         style="stop-opacity:1;stop-color:#08142e"
         offset="0"
         id="stop82" /><stop
         style="stop-opacity:1;stop-color:#17326e"
         offset="0.808989"
         id="stop84" /><stop
         style="stop-opacity:1;stop-color:#0d69a9"
         offset="1"
         id="stop86" /></linearGradient><clipPath
       clipPathUnits="userSpaceOnUse"
       id="clipPath94"><path
         d="m 2367.23,2737.61 c -0.18,0.43 -0.28,0.89 -0.3,1.39 0.02,-0.13 0.02,-0.17 0.02,-0.25 0.45,-4.79 1.7,-13.79 2.72,-20.53 1.58,3.02 3.14,6.23 4.8,9.63 1.25,2.58 0.63,3.38 -0.47,3.79 -3.14,1.13 -6.34,3.51 -6.77,5.97"
         id="path96"
         inkscape:connector-curvature="0" /></clipPath><linearGradient
       x1="0"
       y1="0"
       x2="1"
       y2="0"
       gradientUnits="userSpaceOnUse"
       gradientTransform="matrix(0,77.0906,3.6791,0,235.294,248.568)"
       spreadMethod="pad"
       id="linearGradient98"><stop
         style="stop-opacity:1;stop-color:#08142e"
         offset="0"
         id="stop100" /><stop
         style="stop-opacity:1;stop-color:#17326e"
         offset="0.808989"
         id="stop102" /><stop
         style="stop-opacity:1;stop-color:#0d69a9"
         offset="1"
         id="stop104" /></linearGradient><clipPath
       clipPathUnits="userSpaceOnUse"
       id="clipPath112"><path
         d="m 2421.76,2810.14 c 0.45,-5.14 4.35,-5.76 7.53,-1.25 0.84,1.25 1.8,2.77 2.93,4.5 -0.9,1.21 -1.82,2.38 -2.78,3.58 -4.44,5.26 -15.01,16.64 -25.23,25.55 10.17,-9.7 16.38,-21.54 17.55,-32.38"
         id="path114"
         inkscape:connector-curvature="0" /></clipPath><linearGradient
       x1="0"
       y1="0"
       x2="1"
       y2="0"
       gradientUnits="userSpaceOnUse"
       gradientTransform="matrix(0,70.6061,5.6007,0,239.022,251.546)"
       spreadMethod="pad"
       id="linearGradient116"><stop
         style="stop-opacity:1;stop-color:#08142e"
         offset="0"
         id="stop118" /><stop
         style="stop-opacity:1;stop-color:#17326e"
         offset="0.808989"
         id="stop120" /><stop
         style="stop-opacity:1;stop-color:#0d69a9"
         offset="1"
         id="stop122" /></linearGradient><clipPath
       clipPathUnits="userSpaceOnUse"
       id="clipPath130"><path
         d="m 2000.34,2813.72 c 1.41,1.97 2.73,3.83 4.05,5.6 -5.96,18.37 -15.13,36.37 -21.68,43.16 8.15,-11.08 11.98,-27.03 11.41,-47.41 -0.12,-5.3 3.72,-4.93 6.22,-1.35"
         id="path132"
         inkscape:connector-curvature="0" /></clipPath><linearGradient
       x1="0"
       y1="0"
       x2="1"
       y2="0"
       gradientUnits="userSpaceOnUse"
       gradientTransform="matrix(0,72.9486,4.967,0,196.872,250.564)"
       spreadMethod="pad"
       id="linearGradient134"><stop
         style="stop-opacity:1;stop-color:#08142e"
         offset="0"
         id="stop136" /><stop
         style="stop-opacity:1;stop-color:#17326e"
         offset="0.808989"
         id="stop138" /><stop
         style="stop-opacity:1;stop-color:#0d69a9"
         offset="1"
         id="stop140" /></linearGradient><clipPath
       clipPathUnits="userSpaceOnUse"
       id="clipPath148"><path
         d="m 2646.6,3010.05 0,0 c 0,-0.03 0,-0.03 0,-0.1 0,0.07 0,0.1 0,0.1"
         id="path150"
         inkscape:connector-curvature="0" /></clipPath><linearGradient
       x1="0"
       y1="0"
       x2="1"
       y2="0"
       gradientUnits="userSpaceOnUse"
       gradientTransform="matrix(0,0.0095,2.8,0,263.26,300.995)"
       spreadMethod="pad"
       id="linearGradient152"><stop
         style="stop-opacity:1;stop-color:#08142e"
         offset="0"
         id="stop154" /><stop
         style="stop-opacity:1;stop-color:#17326e"
         offset="0.808989"
         id="stop156" /><stop
         style="stop-opacity:1;stop-color:#0d69a9"
         offset="1"
         id="stop158" /></linearGradient><clipPath
       clipPathUnits="userSpaceOnUse"
       id="clipPath166"><path
         d="m 2234.7,2617.92 c 3.53,-1.88 7.11,-3.1 10.84,-3.74 -1.29,4.91 -1.88,9.75 -1.93,13.89 -0.4,35.65 10.69,71.32 39.09,106.2 34.42,42.42 70.59,63.53 95.74,51.88 -1.27,9.32 -6.14,17.4 -16.81,22.42 -25.11,12.07 -63.37,-10.02 -97.98,-52.63 -28.38,-34.87 -43.71,-70.35 -44.27,-104.92 -0.22,-12.29 4.47,-27.47 15.32,-33.1"
         id="path168"
         inkscape:connector-curvature="0" /></clipPath><linearGradient
       x1="0"
       y1="0"
       x2="1"
       y2="0"
       gradientUnits="userSpaceOnUse"
       gradientTransform="matrix(0,76.9398,18.7277,0,220.517,248.612)"
       spreadMethod="pad"
       id="linearGradient170"><stop
         style="stop-opacity:1;stop-color:#08142e"
         offset="0"
         id="stop172" /><stop
         style="stop-opacity:1;stop-color:#17326e"
         offset="0.808989"
         id="stop174" /><stop
         style="stop-opacity:1;stop-color:#0d69a9"
         offset="1"
         id="stop176" /></linearGradient><clipPath
       clipPathUnits="userSpaceOnUse"
       id="clipPath184"><path
         d="m 1701.37,2802.03 c 4.45,1.95 5.02,4.49 4.18,8.46 -1.49,6.78 -6.24,23.63 -7.64,27.61 0,0 0,0 -0.02,0.01 1.09,-3.7 0.15,-6.55 -4.28,-8.22 -38.56,-14.62 -77.2,-37.35 -103.93,-73.11 -30.27,-40.63 -38.47,-89.55 -18.16,-117.68 4.81,-6.61 10.55,-11.47 16.93,-14.67 -10.93,33.64 -3,78.76 22.7,113.49 26.48,35.86 56.26,49.4 90.22,64.11"
         id="path186"
         inkscape:connector-curvature="0" /></clipPath><linearGradient
       x1="0"
       y1="0"
       x2="1"
       y2="0"
       gradientUnits="userSpaceOnUse"
       gradientTransform="matrix(0,76.9183,18.3183,0,153.721,248.621)"
       spreadMethod="pad"
       id="linearGradient188"><stop
         style="stop-opacity:1;stop-color:#08142e"
         offset="0"
         id="stop190" /><stop
         style="stop-opacity:1;stop-color:#17326e"
         offset="0.808989"
         id="stop192" /><stop
         style="stop-opacity:1;stop-color:#0d69a9"
         offset="1"
         id="stop194" /></linearGradient><clipPath
       clipPathUnits="userSpaceOnUse"
       id="clipPath202"><path
         d="m 2131.11,2677.66 c -9.18,-6.57 -21.15,-13.82 -36.05,-19.35 -18.31,-6.83 -26.9,-9.41 -43.88,-9.22 -21.34,0.14 -40.58,9.22 -54.16,30.35 -7.55,11.43 -10.67,28.84 -11.41,41.57 -0.08,1.41 -1.94,3.91 -3.95,0.68 -35.92,-54.84 -69.43,-107.9 -105.04,-163.64 -1.83,-2.59 -3.48,-4.26 -7.15,-4.44 -22.04,0 -46.11,0.06 -70.39,-0.06 -2.56,0 -4.31,1.15 -4.87,2.9 1.92,-8.51 4.99,-23.9 5.85,-27.49 0.58,-2.44 2.42,-3.69 5.13,-3.69 26.06,0 58.05,0 79.76,0.11 3.2,0.18 5.45,2 7.15,4.44 32.38,50.7 66.97,105.75 100.05,156.55 7.29,-25.59 10.99,-37.55 24.49,-49.58 13.73,-12.33 26.4,-15.5 45.14,-15.7 17,-0.19 33.73,6.6 53.6,14.89 7.13,2.95 13.54,6.65 19.27,10.31 0,9.43 0.94,18.87 2.62,27.9 0.13,0.96 -0.81,7.19 -6.16,3.47"
         id="path204"
         inkscape:connector-curvature="0" /></clipPath><linearGradient
       x1="0"
       y1="0"
       x2="1"
       y2="0"
       gradientUnits="userSpaceOnUse"
       gradientTransform="matrix(0,76.3951,37.1198,0,178.021,248.643)"
       spreadMethod="pad"
       id="linearGradient206"><stop
         style="stop-opacity:1;stop-color:#08142e"
         offset="0"
         id="stop208" /><stop
         style="stop-opacity:1;stop-color:#17326e"
         offset="0.808989"
         id="stop210" /><stop
         style="stop-opacity:1;stop-color:#0d69a9"
         offset="1"
         id="stop212" /></linearGradient><clipPath
       clipPathUnits="userSpaceOnUse"
       id="clipPath220"><path
         d="m 2601.13,2696.94 c 0,-1.34 -0.59,-2.53 -1.32,-3.46 -34.26,-41.87 -72.19,-81.4 -108.44,-109.38 -56.46,-43.7 -112.72,-54.78 -140.6,-26.8 -10.4,10.43 -16.08,25.36 -16.79,37.93 -0.33,6.83 -3.82,7.16 -7.08,3.99 -33.27,-32.93 -91.09,-69.4 -143.72,-43.45 -27.16,13.41 -41.36,38.59 -46.44,66.28 0.04,-0.31 0.14,-0.64 0.19,-0.96 3.34,-19.68 7.6,-47.99 16.85,-65.48 6.02,-11.53 19.46,-24.49 27.68,-28.56 46.7,-23.05 113.38,3.09 156.2,44.29 0.45,0.52 0.54,0.56 1.17,1.27 1.95,-7.45 4.31,-16.41 4.69,-17.62 2.93,-9.56 7.49,-18.27 11.51,-22.85 29.29,-33.12 91.51,-18.08 156.25,32.03 36.17,27.96 63,56.07 95.85,94.31 1.31,1.6 1.21,3.94 0.47,7.47 -1.88,8.34 -4.87,23.44 -6.47,30.99"
         id="path222"
         inkscape:connector-curvature="0" /></clipPath><linearGradient
       x1="0"
       y1="0"
       x2="1"
       y2="0"
       gradientUnits="userSpaceOnUse"
       gradientTransform="matrix(0,76.9552,49.9693,0,212.273,248.613)"
       spreadMethod="pad"
       id="linearGradient224"><stop
         style="stop-opacity:1;stop-color:#08142e"
         offset="0"
         id="stop226" /><stop
         style="stop-opacity:1;stop-color:#17326e"
         offset="0.808989"
         id="stop228" /><stop
         style="stop-opacity:1;stop-color:#0d69a9"
         offset="1"
         id="stop230" /></linearGradient><clipPath
       clipPathUnits="userSpaceOnUse"
       id="clipPath238"><path
         d="m 2130.54,2734.27 c 17.35,9.39 32.6,29.28 30.66,61.57 -0.97,16.05 -5.66,32.61 -13.15,45.98 5.09,-9.81 7.23,-21.14 5.4,-33.03 -3.29,-20.86 -14.58,-39.24 -33.79,-48.76 -16.28,-7.95 -35.3,-6.59 -48.59,5.31 -4.16,3.79 -7.18,8.36 -9.29,13.18 3.43,-15.75 6.38,-27.34 10.51,-33.53 12.59,-18.9 34.29,-23.67 58.25,-10.72"
         id="path240"
         inkscape:connector-curvature="0" /></clipPath><linearGradient
       x1="0"
       y1="0"
       x2="1"
       y2="0"
       gradientUnits="userSpaceOnUse"
       gradientTransform="matrix(0,76.9917,12.9356,0,204.778,248.595)"
       spreadMethod="pad"
       id="linearGradient242"><stop
         style="stop-opacity:1;stop-color:#08142e"
         offset="0"
         id="stop244" /><stop
         style="stop-opacity:1;stop-color:#17326e"
         offset="0.808989"
         id="stop246" /><stop
         style="stop-opacity:1;stop-color:#0d69a9"
         offset="1"
         id="stop248" /></linearGradient><clipPath
       clipPathUnits="userSpaceOnUse"
       id="clipPath256"><path
         d="m 2654.51,2971.97 c -0.66,3.03 -7.26,35 -7.91,37.9 0.22,-0.84 0,-1.87 -0.58,-2.98 -10.95,-18.94 -221.86,-340.04 -235.18,-373.27 -4.24,-10.51 -4.73,-18.54 -0.43,-24.33 4.34,-5.84 10.7,-8.09 17.92,-7.95 0.69,4.03 2.24,8.63 4.2,13.48 13.33,33.29 210.85,333.47 221.69,352.47 0.94,1.62 0.6,3.46 0.29,4.68"
         id="path258"
         inkscape:connector-curvature="0" /></clipPath><linearGradient
       x1="0"
       y1="0"
       x2="1"
       y2="0"
       gradientUnits="userSpaceOnUse"
       gradientTransform="matrix(0,76.9355,27.7047,0,239.211,248.616)"
       spreadMethod="pad"
       id="linearGradient260"><stop
         style="stop-opacity:1;stop-color:#08142e"
         offset="0"
         id="stop262" /><stop
         style="stop-opacity:1;stop-color:#17326e"
         offset="0.808989"
         id="stop264" /><stop
         style="stop-opacity:1;stop-color:#0d69a9"
         offset="1"
         id="stop266" /></linearGradient><clipPath
       clipPathUnits="userSpaceOnUse"
       id="clipPath274"><path
         d="m 1770.5,2857.44 c 0.61,-0.63 1.13,-1.32 1.66,-2.03 12.7,-18.88 19.61,-45.47 20.29,-72.92 0.79,-5.8 3.26,-5.94 6.1,-2.95 2.54,2.62 5.06,5.33 7.51,8.04 -3.7,14.76 -9.47,28.02 -15.38,40.79 -2.18,4.67 -11.87,21.23 -20.18,29.07"
         id="path276"
         inkscape:connector-curvature="0" /></clipPath><linearGradient
       x1="0"
       y1="0"
       x2="1"
       y2="0"
       gradientUnits="userSpaceOnUse"
       gradientTransform="matrix(0,75.1439,6.3567,0,175.65,249.48)"
       spreadMethod="pad"
       id="linearGradient278"><stop
         style="stop-opacity:1;stop-color:#08142e"
         offset="0"
         id="stop280" /><stop
         style="stop-opacity:1;stop-color:#17326e"
         offset="0.808989"
         id="stop282" /><stop
         style="stop-opacity:1;stop-color:#0d69a9"
         offset="1"
         id="stop284" /></linearGradient><clipPath
       clipPathUnits="userSpaceOnUse"
       id="clipPath292"><path
         d="m 1886.59,2764.39 c 14.8,12.63 30.98,20.82 41.14,16.9 6.09,15.71 3.2,24.37 -3.3,28.59 -9.94,6.44 -29.7,-3.26 -46.38,-15.97 -45.51,-34.47 -83.73,-88.16 -103.09,-112.16 -11.42,-14.15 -22.18,-34.97 -52.01,-67.34 -46.91,-50.93 -109.08,-80.18 -169.01,-59.97 -32.74,11.02 -56.42,37.36 -65.47,69.62 -1.8,6.27 -5.29,8.01 -8.68,3.88 -9.7,-12.06 -29.5,-29.83 -46.05,-41.05 -1.79,-1.29 -6.26,-3.94 -10.11,-2.05 -3.47,1.56 -15.77,18.92 -18.18,23.92 -0.3,0.53 -0.49,1.13 -0.57,1.64 0,-0.04 0,-0.1 0,-0.2 4.28,-21.38 4.83,-23.84 10.68,-33.7 6.64,-10.93 13.07,-18.61 14.51,-19.24 3.88,-1.96 7.8,-0.16 9.75,0.87 12.83,6.6 37.9,25.89 48.69,39.31 3.27,3.11 6.41,1.02 7.44,-2.25 4.53,-14.3 11.14,-25.33 18.52,-37.06 8.09,-12.99 24.28,-26.52 45.25,-32.3 27.18,-7.58 56.49,-8.97 94.96,5.78 30.88,11.83 63.23,35.89 88.15,62.93 29.87,32.39 40.65,53.19 52.01,67.37 19.33,23.99 49.48,66.41 91.75,102.48"
         id="path294"
         inkscape:connector-curvature="0" /></clipPath><linearGradient
       x1="0"
       y1="0"
       x2="1"
       y2="0"
       gradientUnits="userSpaceOnUse"
       gradientTransform="matrix(0,76.4173,55.6944,0,139.087,248.635)"
       spreadMethod="pad"
       id="linearGradient296"><stop
         style="stop-opacity:1;stop-color:#08142e"
         offset="0"
         id="stop298" /><stop
         style="stop-opacity:1;stop-color:#17326e"
         offset="0.808989"
         id="stop300" /><stop
         style="stop-opacity:1;stop-color:#0d69a9"
         offset="1"
         id="stop302" /></linearGradient><clipPath
       clipPathUnits="userSpaceOnUse"
       id="clipPath310"><path
         d="m 1058.45,2680.64 c -6.03,23.72 0.5,49.29 10.02,68.4 15.18,30.56 36.44,45.15 57.42,58.36 9.02,5.71 13.01,11.26 7.65,26.15 -1.53,4.22 -2.39,11.87 -4.06,18.64 0.53,-6.62 -2.71,-12.33 -8.6,-15.33 -25.58,-13.06 -56.36,-35.41 -71.59,-65.94 -12.36,-24.92 -14.85,-54.96 4.01,-83.56 1.58,-2.32 3.28,-4.59 5.15,-6.72"
         id="path312"
         inkscape:connector-curvature="0" /></clipPath><linearGradient
       x1="0"
       y1="0"
       x2="1"
       y2="0"
       gradientUnits="userSpaceOnUse"
       gradientTransform="matrix(0,76.9252,13.246,0,102.044,248.623)"
       spreadMethod="pad"
       id="linearGradient314"><stop
         style="stop-opacity:1;stop-color:#08142e"
         offset="0"
         id="stop316" /><stop
         style="stop-opacity:1;stop-color:#17326e"
         offset="0.808989"
         id="stop318" /><stop
         style="stop-opacity:1;stop-color:#0d69a9"
         offset="1"
         id="stop320" /></linearGradient><clipPath
       clipPathUnits="userSpaceOnUse"
       id="clipPath328"><path
         d="m 1237.54,3000.94 c -5.24,36.18 21.85,95.37 92.96,118.85 93,30.67 196.69,11.3 280.04,-6.53 11.65,7.3 21.85,12.33 32.06,17.9 5.07,2.64 -0.65,5.82 -2.19,5.82 -107.53,20.2 -219.3,46.36 -326.1,6.81 -73.95,-27.6 -106.36,-86.25 -90.76,-125.44 3.01,-7.48 7.81,-13.25 13.99,-17.41"
         id="path330"
         inkscape:connector-curvature="0" /></clipPath><linearGradient
       x1="0"
       y1="0"
       x2="1"
       y2="0"
       gradientUnits="userSpaceOnUse"
       gradientTransform="matrix(0,76.9165,46.7715,0,119.395,248.63)"
       spreadMethod="pad"
       id="linearGradient332"><stop
         style="stop-opacity:1;stop-color:#08142e"
         offset="0"
         id="stop334" /><stop
         style="stop-opacity:1;stop-color:#17326e"
         offset="0.808989"
         id="stop336" /><stop
         style="stop-opacity:1;stop-color:#0d69a9"
         offset="1"
         id="stop338" /></linearGradient><clipPath
       clipPathUnits="userSpaceOnUse"
       id="clipPath346"><path
         d="m 1521.76,2886.32 c 35.42,4.41 67.19,6.39 98.49,9.36 9.32,0.88 16.43,1.72 19.83,-1.66 11.32,-11.31 24.43,-21.64 33.14,-26.7 5.78,-0.05 10.64,-1.31 14.04,-4.39 3.63,0.51 7,2.52 9.15,4.61 4.06,3.98 4.24,8.61 3.55,12.6 -1.4,7.71 -3.47,22.95 -5.96,27.33 1.7,-3.34 0.63,-8.12 -2.77,-11.92 -2.48,-2.84 -6.34,-5.5 -11.3,-5.4 -4.02,0.08 -6.46,1.46 -11.57,4.24 -10.49,5.68 -23.59,15.01 -32.32,26.02 -2.99,3.72 -4.49,3.8 -11.93,3.4 -33.5,-1.93 -85.72,-6.99 -121.11,-11.41 -8.56,-1.06 -9.82,-2.67 -11.59,-5.63 -56.41,-93.03 -116.64,-193.34 -182.77,-260.5 -70.93,-72.01 -129.89,-90.97 -192.48,-91.45 -72.29,-0.51 -136.59,40.46 -152.801,112.4 8.688,-40.16 34.614,-88.6 64.551,-109.69 30.45,-21.48 60.48,-28.6 95.51,-29.23 71.17,-1.25 136.17,28.11 205.08,98.11 66.16,67.14 123.45,160.93 179.9,253.95 1.92,3.29 3.87,4.75 13.36,5.96"
         id="path348"
         inkscape:connector-curvature="0" /></clipPath><linearGradient
       x1="0"
       y1="0"
       x2="1"
       y2="0"
       gradientUnits="userSpaceOnUse"
       gradientTransform="matrix(0,76.934,76.529,0,94.936,248.618)"
       spreadMethod="pad"
       id="linearGradient350"><stop
         style="stop-opacity:1;stop-color:#08142e"
         offset="0"
         id="stop352" /><stop
         style="stop-opacity:1;stop-color:#17326e"
         offset="0.808989"
         id="stop354" /><stop
         style="stop-opacity:1;stop-color:#0d69a9"
         offset="1"
         id="stop356" /></linearGradient><clipPath
       clipPathUnits="userSpaceOnUse"
       id="clipPath364"><path
         d="m 1405.6,2898.22 c -31.99,-0.88 -59.88,-10.42 -86.99,-30.68 -7.81,-5.68 -19.04,-4.88 -23.96,2.61 -1.64,2.54 -2.43,5.3 -2.51,8.1 -0.71,-12.05 4.13,-29.77 8.05,-35.73 4.29,-6.58 16.34,-9.82 25.92,-2.75 21.56,15.92 41.05,25.18 62.85,29.32 5.62,7.65 11.71,16.14 18.62,25.7 0.57,0.76 0.73,1.77 0.48,2.26 -0.4,0.85 -1.07,1.09 -2.46,1.17"
         id="path366"
         inkscape:connector-curvature="0" /></clipPath><linearGradient
       x1="0"
       y1="0"
       x2="1"
       y2="0"
       gradientUnits="userSpaceOnUse"
       gradientTransform="matrix(0,76.9693,14.4881,0,127.743,248.601)"
       spreadMethod="pad"
       id="linearGradient368"><stop
         style="stop-opacity:1;stop-color:#08142e"
         offset="0"
         id="stop370" /><stop
         style="stop-opacity:1;stop-color:#17326e"
         offset="0.808989"
         id="stop372" /><stop
         style="stop-opacity:1;stop-color:#0d69a9"
         offset="1"
         id="stop374" /></linearGradient><clipPath
       clipPathUnits="userSpaceOnUse"
       id="clipPath382"><path
         d="m 2217.79,3163.71 c 0.47,-0.66 0.88,-1.37 1.29,-2.12 -0.41,0.81 -0.82,1.55 -1.29,2.12"
         id="path384"
         inkscape:connector-curvature="0" /></clipPath><linearGradient
       x1="0"
       y1="0"
       x2="1"
       y2="0"
       gradientUnits="userSpaceOnUse"
       gradientTransform="matrix(0,75.8173,2.9285,0,220.38,249.598)"
       spreadMethod="pad"
       id="linearGradient386"><stop
         style="stop-opacity:1;stop-color:#08142e"
         offset="0"
         id="stop388" /><stop
         style="stop-opacity:1;stop-color:#17326e"
         offset="0.808989"
         id="stop390" /><stop
         style="stop-opacity:1;stop-color:#0d69a9"
         offset="1"
         id="stop392" /></linearGradient><clipPath
       clipPathUnits="userSpaceOnUse"
       id="clipPath400"><path
         d="m 1521.42,2951.32 c -1.29,-1.53 -0.59,-3 1.64,-2.84 10.07,0.5 19.79,0.95 29.42,1.47 34.79,54.44 71.98,85.69 128.85,127.68 4.22,3.17 8.47,5.44 7.08,17.55 114.19,-25.34 201.05,-67.36 348.53,-67.79 43.99,-0.1 106.07,14.56 139.45,34.7 38.38,23.07 48.57,40.02 49.98,57.98 0.43,5.59 -1.02,13.9 -1.96,18.22 -1.28,6.07 -2.16,13.8 -3.9,19.56 0.62,-2.36 0.88,-5.02 0.68,-7.91 -1.17,-20.61 -17.12,-40.44 -56.43,-61.89 -44.71,-24.52 -91.48,-31.95 -140.33,-32.35 -118.12,-0.98 -228.15,45.06 -342.01,69.8 0.16,-4.98 1.44,-10.93 -2.74,-14.07 -63.06,-46.53 -120.07,-93.77 -158.26,-160.11"
         id="path402"
         inkscape:connector-curvature="0" /></clipPath><linearGradient
       x1="0"
       y1="0"
       x2="1"
       y2="0"
       gradientUnits="userSpaceOnUse"
       gradientTransform="matrix(0,76.9208,73.4665,0,150.613,248.624)"
       spreadMethod="pad"
       id="linearGradient404"><stop
         style="stop-opacity:1;stop-color:#08142e"
         offset="0"
         id="stop406" /><stop
         style="stop-opacity:1;stop-color:#17326e"
         offset="0.808989"
         id="stop408" /><stop
         style="stop-opacity:1;stop-color:#0d69a9"
         offset="1"
         id="stop410" /></linearGradient><clipPath
       clipPathUnits="userSpaceOnUse"
       id="clipPath418"><path
         d="m 1675.15,2983.34 c 4.72,4.16 10.61,6.12 15.65,5.23 4.35,8.68 5.61,19.03 0.32,23.59 -5.12,4.44 -13.24,3.63 -19.81,-1.07 -1.42,-1.36 -2.99,-2.71 -4.56,-4.12 -11.27,-11.69 -14.7,-27.13 -13.04,-38.82 0.9,-4.77 2.76,-5.69 4.92,-5.29 2.13,0.44 4.3,1.16 6.51,2.06 0.82,6.44 3.52,12.68 10.01,18.42"
         id="path420"
         inkscape:connector-curvature="0" /></clipPath><linearGradient
       x1="0"
       y1="0"
       x2="1"
       y2="0"
       gradientUnits="userSpaceOnUse"
       gradientTransform="matrix(0,72.6775,7.2365,0,163.804,251.253)"
       spreadMethod="pad"
       id="linearGradient422"><stop
         style="stop-opacity:1;stop-color:#08142e"
         offset="0"
         id="stop424" /><stop
         style="stop-opacity:1;stop-color:#17326e"
         offset="0.808989"
         id="stop426" /><stop
         style="stop-opacity:1;stop-color:#0d69a9"
         offset="1"
         id="stop428" /></linearGradient><clipPath
       clipPathUnits="userSpaceOnUse"
       id="clipPath436"><path
         d="m 1722.7,2944.55 c 5.43,11.95 8.38,21.36 6.03,41.86 -1.69,14.36 -4.59,27.35 -8.43,34.04 7.38,-15.04 4.4,-34.36 -3.59,-49.77 -10.82,-20.73 -28.68,-31.8 -45.83,-37.18 0,0 -3.59,-0.8 -3.07,-4.06 0.44,-3.72 12.6,-11.42 20.19,-16.78 1.11,0.29 2.72,0.93 2.72,0.93 8.82,3.42 23.48,12.34 31.98,30.96"
         id="path438"
         inkscape:connector-curvature="0" /></clipPath><linearGradient
       x1="0"
       y1="0"
       x2="1"
       y2="0"
       gradientUnits="userSpaceOnUse"
       gradientTransform="matrix(0,76.9301,9.1786,0,165.329,248.619)"
       spreadMethod="pad"
       id="linearGradient440"><stop
         style="stop-opacity:1;stop-color:#08142e"
         offset="0"
         id="stop442" /><stop
         style="stop-opacity:1;stop-color:#17326e"
         offset="0.808989"
         id="stop444" /><stop
         style="stop-opacity:1;stop-color:#0d69a9"
         offset="1"
         id="stop446" /></linearGradient><clipPath
       clipPathUnits="userSpaceOnUse"
       id="clipPath454"><path
         d="m 1198.13,2905.16 c 15.76,-9.84 35.19,-15.28 57.43,-14.53 75.75,2.58 133.15,64.98 152.18,117.75 5.1,14.24 1.15,29.48 -1.25,39.77 -0.95,3.98 -2.26,12.94 -5.14,19.35 l -0.03,0 c 2.2,-5.25 2.2,-13.04 -1.96,-22.83 -31.25,-73.46 -90.96,-131.72 -163.68,-134.17 -43.84,-1.45 -76.66,21 -92.01,54.19 11.25,-24.77 34.28,-46.86 54.46,-59.53"
         id="path456"
         inkscape:connector-curvature="0" /></clipPath><linearGradient
       x1="0"
       y1="0"
       x2="1"
       y2="0"
       gradientUnits="userSpaceOnUse"
       gradientTransform="matrix(0,76.9345,29.7172,0,112.967,248.617)"
       spreadMethod="pad"
       id="linearGradient458"><stop
         style="stop-opacity:1;stop-color:#08142e"
         offset="0"
         id="stop460" /><stop
         style="stop-opacity:1;stop-color:#17326e"
         offset="0.808989"
         id="stop462" /><stop
         style="stop-opacity:1;stop-color:#0d69a9"
         offset="1"
         id="stop464" /></linearGradient><clipPath
       clipPathUnits="userSpaceOnUse"
       id="clipPath474"><path
         d="m 452.738,3034.3 c 207.305,209.13 748.032,349.83 1344.822,352.32 82.69,0.34 163.73,-1.98 242.65,-6.68 -78.14,4.93 -158.37,7.54 -240.21,7.54 -796.1,0 -1435.699,-238.71 -1435.699,-535.48 0,-14.1 1.633,-28.06 4.512,-41.88 -2.176,11.86 -3.422,23.83 -3.477,35.92 -0.293,64.04 28.359,128.69 87.402,188.26"
         id="path476"
         inkscape:connector-curvature="0" /></clipPath><linearGradient
       x1="0"
       y1="0"
       x2="1"
       y2="0"
       gradientUnits="userSpaceOnUse"
       gradientTransform="matrix(-33.2721,124.173,174.053,46.6374,61.3081,182.122)"
       spreadMethod="pad"
       id="linearGradient478"><stop
         style="stop-opacity:1;stop-color:#b2b1b1"
         offset="0"
         id="stop480" /><stop
         style="stop-opacity:1;stop-color:#deddde"
         offset="0.35"
         id="stop482" /><stop
         style="stop-opacity:1;stop-color:#dedede"
         offset="0.65"
         id="stop484" /><stop
         style="stop-opacity:1;stop-color:#b2b1b1"
         offset="1"
         id="stop486" /></linearGradient><clipPath
       clipPathUnits="userSpaceOnUse"
       id="clipPath494"><path
         d="m 3145.6,2670.41 c -206.58,-208.39 -747.12,-350.55 -1343.12,-353.02 -84.29,-0.35 -166.93,1.91 -247.25,6.79 79.53,-5.12 161.34,-7.66 244.78,-7.66 791.59,0 1435.59,241.62 1435.59,535.34 0,11.21 -1.04,22.34 -2.87,33.37 1.27,-9.07 1.95,-18.21 1.99,-27.41 0.29,-64.03 -30.06,-127.85 -89.12,-187.41"
         id="path496"
         inkscape:connector-curvature="0" /></clipPath><linearGradient
       x1="0"
       y1="0"
       x2="1"
       y2="0"
       gradientUnits="userSpaceOnUse"
       gradientTransform="matrix(-33.1194,123.603,174.403,46.7311,148.733,250.028)"
       spreadMethod="pad"
       id="linearGradient498"><stop
         style="stop-opacity:1;stop-color:#b2b1b1"
         offset="0"
         id="stop500" /><stop
         style="stop-opacity:1;stop-color:#deddde"
         offset="0.35"
         id="stop502" /><stop
         style="stop-opacity:1;stop-color:#dedede"
         offset="0.65"
         id="stop504" /><stop
         style="stop-opacity:1;stop-color:#b2b1b1"
         offset="1"
         id="stop506" /></linearGradient><clipPath
       clipPathUnits="userSpaceOnUse"
       id="clipPath514"><path
         d="m 1799.92,2379.2 c -750.51,0 -1358.904,211.74 -1358.904,472.94 0,261.24 608.394,472.95 1358.904,472.95 750.44,0 1358.81,-211.71 1358.81,-472.95 0,-261.2 -608.37,-472.94 -1358.81,-472.94 z m 0,904.93 c -724.14,0 -1311.115,-193.37 -1311.115,-431.99 0,-238.62 586.975,-432.02 1311.115,-432.02 724.14,0 1311.08,193.4 1311.08,432.02 0,238.62 -586.94,431.99 -1311.08,431.99"
         id="path516"
         inkscape:connector-curvature="0" /></clipPath><linearGradient
       x1="0"
       y1="0"
       x2="1"
       y2="0"
       gradientUnits="userSpaceOnUse"
       gradientTransform="matrix(0,-110.319,-274.572,0,317.273,340.492)"
       spreadMethod="pad"
       id="linearGradient518"><stop
         style="stop-opacity:1;stop-color:#ffffff"
         offset="0"
         id="stop520" /><stop
         style="stop-opacity:1;stop-color:#fafafa"
         offset="0.691011"
         id="stop522" /><stop
         style="stop-opacity:1;stop-color:#d3d2d2"
         offset="0.8"
         id="stop524" /><stop
         style="stop-opacity:1;stop-color:#bdbcbd"
         offset="1"
         id="stop526" /></linearGradient><clipPath
       clipPathUnits="userSpaceOnUse"
       id="clipPath534"><path
         d="m 2646.02,3006.89 c 1.87,3.3 -0.1,5.71 -4.26,5.71 -21.7,0 -50.17,-0.05 -72.78,-0.05 -5.39,0 -8.17,-0.66 -10.71,-5.66 -8.34,-15.99 -110.05,-168.41 -128.98,-198 -3.18,-4.51 -7.08,-3.89 -7.53,1.25 -1.92,17.57 -17.1,37.78 -41.02,47.45 -18.23,7.4 -36.05,8.74 -54.58,6.28 -33.45,-4.49 -63.25,-22.15 -89.45,-42.05 -39.49,-30.02 -73.56,-68.93 -117.54,-97.68 -24.01,-15.64 -56.88,-29.3 -78.89,-8.93 -19.91,18.46 -17.66,59.47 12.79,91.18 3.22,3.32 7.07,0.54 6.46,-2.44 -2.87,-14.35 0.67,-28.61 11.54,-38.61 13.29,-11.9 32.31,-13.26 48.59,-5.31 19.21,9.52 30.5,27.9 33.79,48.76 5.1,32.36 -19.82,60.91 -50.99,63.19 -25.32,1.78 -49.6,-7.03 -73.26,-26.56 -11.86,-9.83 -18.6,-17.11 -28.86,-31.7 -2.5,-3.58 -6.34,-3.95 -6.22,1.35 1.19,41.43 -15.96,64.75 -50.21,65.5 -26.59,0.63 -54.99,-13.78 -77.13,-31.44 -24.27,-19.49 -45.49,-45.32 -68.23,-69.59 -2.84,-2.99 -5.31,-2.85 -6.1,2.95 -0.68,27.45 -7.59,54.04 -20.29,72.92 -4.5,6.57 -13.95,9.82 -21.9,5.38 -3.67,-2.01 -16.46,-7.88 -25.74,-15.37 -4.62,-3.8 -6.41,-9.3 -4.39,-16.35 12.28,-41 9.57,-87.63 -7.06,-127.02 -15.27,-36.07 -44.97,-68.6 -79.86,-79.61 -22.99,-7.28 -46.9,-3.72 -61.69,16.66 -20.31,28.13 -12.11,77.05 18.16,117.68 26.73,35.76 65.37,58.49 103.93,73.11 4.54,1.75 5.47,4.66 4.19,8.52 -2.1,6.35 -5.43,14.97 -6.81,18.91 -3.53,9.41 -13.44,10.94 -25.52,9.62 -28.01,-3.26 -53.28,-12.86 -78.24,-26.22 -65.35,-35 -98.12,-102.74 -112.5,-138.98 -6.9,-17.4 -12.82,-28.27 -20.46,-37.9 -10.31,-12.95 -23.23,-24.74 -46.89,-45.51 -2.14,-1.9 -3.73,-5.88 -1.93,-9.57 2.41,-5 14.71,-22.36 18.18,-23.92 3.85,-1.89 8.32,0.76 10.11,2.05 16.55,11.22 36.35,28.99 46.05,41.05 3.39,4.13 6.88,2.39 8.68,-3.88 9.05,-32.26 32.73,-58.6 65.47,-69.62 59.93,-20.21 122.1,9.04 169.01,59.97 29.83,32.37 40.59,53.19 52.01,67.34 19.36,24 57.58,77.69 103.09,112.16 16.68,12.71 36.44,22.41 46.38,15.97 7.96,-5.15 10.54,-17.17 -2.25,-40.43 -46.4,-84.72 -114.67,-184.27 -127.19,-208.41 -2.29,-4.19 -0.29,-7.49 4.09,-7.49 24.28,0.12 48.35,0.06 70.39,0.06 3.67,0.18 5.32,1.85 7.15,4.44 35.61,55.74 69.12,108.8 105.04,163.64 2.01,3.23 3.87,0.73 3.95,-0.68 0.74,-12.73 3.86,-30.14 11.41,-41.57 13.58,-21.13 32.82,-30.21 54.16,-30.35 16.98,-0.19 25.57,2.39 43.88,9.22 14.9,5.53 26.87,12.78 36.05,19.35 5.35,3.72 6.29,-2.51 6.16,-3.47 -8.24,-44.25 1.93,-96.68 45.91,-118.42 52.63,-25.95 110.45,10.52 143.72,43.45 3.26,3.17 6.75,2.84 7.08,-3.99 0.71,-12.57 6.39,-27.5 16.79,-37.93 27.88,-27.98 84.14,-16.9 140.6,26.8 36.25,27.98 74.18,67.51 108.44,109.38 1.28,1.61 2.22,4.22 -0.23,6.85 -5.22,5.46 -12.77,11.71 -17.94,16.53 -2.36,2 -5.82,1.42 -7.81,-0.08 -35.12,-33.4 -66.73,-71.49 -112.42,-102.99 -15.41,-10.75 -39.96,-19.43 -51,-4.5 -4.3,5.79 -3.81,13.82 0.43,24.33 13.32,33.23 224.23,354.33 235.18,373.27 z m -278.79,-269.28 c 0.43,-2.46 3.63,-4.84 6.77,-5.97 1.1,-0.41 1.72,-1.21 0.47,-3.79 -8.97,-19.22 -17.21,-30.3 -28.45,-47 -10.34,-15.43 -21.99,-27.47 -36.09,-39.04 -21.27,-17.61 -50.81,-36.77 -75.23,-23.89 -10.85,5.63 -15.54,20.81 -15.32,33.1 0.56,34.57 15.89,70.05 44.27,104.92 34.61,42.61 72.87,64.7 97.98,52.63 25.98,-12.4 17.69,-42.48 6.07,-66.09 -0.88,-1.83 -0.93,-3.38 -0.47,-4.87"
         id="path536"
         inkscape:connector-curvature="0" /></clipPath><linearGradient
       x1="0"
       y1="0"
       x2="1"
       y2="0"
       gradientUnits="userSpaceOnUse"
       gradientTransform="matrix(0,-54.7122,-127.224,0,266.189,305.22)"
       spreadMethod="pad"
       id="linearGradient538"><stop
         style="stop-opacity:1;stop-color:#ffffff"
         offset="0"
         id="stop540" /><stop
         style="stop-opacity:1;stop-color:#fafafa"
         offset="0.691011"
         id="stop542" /><stop
         style="stop-opacity:1;stop-color:#d3d2d2"
         offset="0.8"
         id="stop544" /><stop
         style="stop-opacity:1;stop-color:#bdbcbd"
         offset="1"
         id="stop546" /></linearGradient><clipPath
       clipPathUnits="userSpaceOnUse"
       id="clipPath554"><path
         d="m 1116.16,2554.82 c -78.64,-0.57 -147.922,48.04 -155.867,132.17 -4.418,46.62 8.762,88.17 35.137,122.4 23.41,30.5 63.02,55.84 96.55,62.04 10.91,2 25.57,0.72 31.63,-6.5 9.51,-11.06 6.77,-23.21 -2.73,-28.07 -25.58,-13.06 -56.36,-35.41 -71.59,-65.94 -12.36,-24.92 -14.85,-54.96 4.01,-83.56 31.59,-47.69 119.62,-49 201.47,27.04 20.27,18.61 38.41,36.49 56.85,57.67 36.05,41.22 48.04,56.24 95.96,122.72 0.57,0.76 0.73,1.77 0.48,2.26 -0.4,0.85 -1.07,1.09 -2.46,1.17 -31.99,-0.88 -59.88,-10.42 -86.99,-30.68 -7.81,-5.68 -19.04,-4.88 -23.96,2.61 -5.47,8.46 -1.55,19.51 7.46,25.73 43.61,30.33 91.25,35.83 139.9,44.04 -0.04,0 3.38,-0.16 6.17,3.54 19.96,25.62 35.05,48.75 56.33,74.67 21.44,26.3 49.17,50.44 70.34,68.58 29.55,25.42 48.49,33.96 67.75,44.45 5.07,2.64 -0.65,5.82 -2.19,5.82 -107.53,20.2 -219.3,46.36 -326.1,6.81 -73.95,-27.6 -106.36,-86.25 -90.76,-125.44 11.08,-27.79 47.65,-32.31 81.87,-15.57 28.43,13.94 54.73,36.38 73.38,65.29 10.45,16.04 32.43,4.47 20.56,-23.4 -31.25,-73.46 -90.96,-131.72 -163.68,-134.17 -61.89,-2.02 -101.82,43.52 -101.69,99.69 0.23,110.79 123.59,183.76 253.21,194.67 156.1,12.91 303.95,-28.67 458.94,-47.48 118.75,-14.37 232.6,-14.68 351.96,12.75 14.11,3.06 24.01,-5.95 23.09,-20.19 -1.17,-20.61 -17.12,-40.44 -56.43,-61.89 -44.71,-24.52 -91.48,-31.95 -140.33,-32.35 -118.12,-0.98 -228.15,45.06 -342.01,69.8 0.16,-4.98 1.44,-10.93 -2.74,-14.07 -63.06,-46.53 -120.07,-93.77 -158.26,-160.11 -1.29,-1.53 -0.59,-3 1.64,-2.84 33.15,1.75 62.96,2.61 93.92,5.09 5.4,0.45 5.6,1.79 5.13,5.75 -2.73,22.87 3.94,48.94 24.06,66.88 20.58,18.47 46.37,20.57 63.46,7.27 19.44,-15.15 17.72,-42.38 7.08,-62.79 -10.82,-20.73 -28.68,-31.8 -45.83,-37.18 0,0 -3.59,-0.8 -3.07,-4.06 0.68,-5.23 24.04,-18.18 26.04,-21.63 1.93,-3.28 0.94,-8.37 -2.62,-12.26 -2.48,-2.84 -6.34,-5.5 -11.3,-5.4 -4.02,0.08 -6.46,1.46 -11.57,4.24 -10.49,5.68 -23.59,15.01 -32.32,26.02 -2.99,3.72 -4.49,3.8 -11.93,3.4 -33.5,-1.93 -85.72,-6.99 -121.11,-11.41 -8.56,-1.06 -9.82,-2.67 -11.59,-5.63 -56.41,-93.03 -116.64,-193.34 -182.77,-260.5 -70.93,-72.01 -129.89,-90.97 -192.48,-91.45 z m 537.55,413.33 c 0.9,-4.77 2.76,-5.69 4.92,-5.29 10.74,2.15 22.51,11 29.45,21.23 6.36,9.29 9.33,22.7 3.04,28.07 -5.64,4.82 -14.78,3.45 -21.55,-2.53 -13.49,-11.93 -17.6,-28.85 -15.86,-41.48 l 0,0"
         id="path556"
         inkscape:connector-curvature="0" /></clipPath><linearGradient
       x1="0"
       y1="0"
       x2="1"
       y2="0"
       gradientUnits="userSpaceOnUse"
       gradientTransform="matrix(0,-75.8927,-129.423,0,223.611,326.045)"
       spreadMethod="pad"
       id="linearGradient558"><stop
         style="stop-opacity:1;stop-color:#ffffff"
         offset="0"
         id="stop560" /><stop
         style="stop-opacity:1;stop-color:#fafafa"
         offset="0.691011"
         id="stop562" /><stop
         style="stop-opacity:1;stop-color:#d3d2d2"
         offset="0.8"
         id="stop564" /><stop
         style="stop-opacity:1;stop-color:#bdbcbd"
         offset="1"
         id="stop566" /></linearGradient></defs><sodipodi:namedview
     pagecolor="#ffffff"
     bordercolor="#666666"
     borderopacity="1"
     objecttolerance="10"
     gridtolerance="10"
     guidetolerance="10"
     inkscape:pageopacity="0"
     inkscape:pageshadow="2"
     inkscape:window-width="640"
     inkscape:window-height="480"
     id="namedview4"
     showgrid="false"
     fit-margin-top="0"
     fit-margin-left="0"
     fit-margin-right="0"
     fit-margin-bottom="0"
     inkscape:zoom="0.50319829"
     inkscape:cx="180.00737"
     inkscape:cy="-54.5"
     inkscape:window-x="0"
     inkscape:window-y="0"
     inkscape:window-maximized="0"
     inkscape:current-layer="g12" /><g
     id="g10"
     inkscape:groupmode="layer"
     inkscape:label="ink_ext_XXXXXX"
     transform="matrix(1.25,0,0,-1.25,-44.992625,423.9975)"><g
       id="g12"
       transform="scale(0.1,0.1)"><path
         d="m 1800,3391.98 c -799.32,0 -1440.059,-239.59 -1440.059,-539.98 0,-298.56 646.019,-540 1440.059,-540 794.06,0 1440.08,242.25 1440.08,540 0,297.75 -646.02,539.98 -1440.08,539.98 z M 3231.26,2893.7 c 0.54,-2.61 0.94,-5.23 1.38,-7.84 -0.38,2.62 -0.9,5.23 -1.38,7.84"
         style="fill:#cccccc;fill-opacity:1;fill-rule:nonzero;stroke:none"
         id="path14"
         inkscape:connector-curvature="0" /><g
         id="g16"><g
           id="g18"
           clip-path="url(#clipPath20)"><path
             d="m 1800.02,3370.41 c -783.41,0 -1417.969,-231.57 -1417.969,-518.11 0,-286.43 634.559,-518.08 1417.969,-518.08 783.49,0 1417.94,231.65 1417.94,518.08 0,286.54 -634.45,518.11 -1417.94,518.11"
             style="fill:url(#radialGradient24);fill-opacity:1;fill-rule:nonzero;stroke:none"
             id="path34"
             inkscape:connector-curvature="0" /></g></g><g
         id="g36"><g
           id="g38"
           clip-path="url(#clipPath40)"><path
             d="m 495.32,2832.32 c 0,237.18 587.02,429.43 1311.13,429.43 666.12,0 1216.1,-162.69 1300.01,-373.34 -55.93,221.63 -619.45,395.72 -1306.54,395.72 -724.14,0 -1311.115,-193.37 -1311.115,-431.99 0,-19.41 3.906,-38.55 11.433,-57.32 -3.23,12.37 -4.918,24.86 -4.918,37.5"
             style="fill:url(#linearGradient44);fill-opacity:1;fill-rule:nonzero;stroke:none"
             id="path52"
             inkscape:connector-curvature="0" /></g></g><g
         id="g54"><g
           id="g56"
           clip-path="url(#clipPath58)"><path
             d="m 3149.94,2906.22 c 5.82,-17.75 8.79,-35.78 8.79,-54.08 0,-261.2 -608.37,-472.94 -1358.81,-472.94 -667.87,0 -1223.139,167.73 -1337.369,388.61 86.883,-230.1 656.849,-407.68 1347.119,-407.68 750.34,0 1358.58,209.88 1358.58,468.94 0,26.26 -6.26,52.07 -18.31,77.15"
             style="fill:url(#linearGradient62);fill-opacity:1;fill-rule:nonzero;stroke:none"
             id="path70"
             inkscape:connector-curvature="0" /></g></g><g
         id="g72"><g
           id="g74"
           clip-path="url(#clipPath76)"><path
             d="m 2053.07,2806.39 c -30.45,-31.71 -32.7,-72.72 -12.79,-91.18 7.13,-6.6 15.33,-9.64 24.08,-10.14 -13.02,16.48 -19.12,48.75 -2.99,74.32 -2.99,7.54 -3.56,16.08 -1.84,24.56 0.61,2.98 -3.24,5.76 -6.46,2.44"
             style="fill:url(#linearGradient80);fill-opacity:1;fill-rule:nonzero;stroke:none"
             id="path88"
             inkscape:connector-curvature="0" /></g></g><g
         id="g90"><g
           id="g92"
           clip-path="url(#clipPath94)"><path
             d="m 2367.23,2737.61 c -0.18,0.43 -0.28,0.89 -0.3,1.39 0.02,-0.13 0.02,-0.17 0.02,-0.25 0.45,-4.79 1.7,-13.79 2.72,-20.53 1.58,3.02 3.14,6.23 4.8,9.63 1.25,2.58 0.63,3.38 -0.47,3.79 -3.14,1.13 -6.34,3.51 -6.77,5.97"
             style="fill:url(#linearGradient98);fill-opacity:1;fill-rule:nonzero;stroke:none"
             id="path106"
             inkscape:connector-curvature="0" /></g></g><g
         id="g108"><g
           id="g110"
           clip-path="url(#clipPath112)"><path
             d="m 2421.76,2810.14 c 0.45,-5.14 4.35,-5.76 7.53,-1.25 0.84,1.25 1.8,2.77 2.93,4.5 -0.9,1.21 -1.82,2.38 -2.78,3.58 -4.44,5.26 -15.01,16.64 -25.23,25.55 10.17,-9.7 16.38,-21.54 17.55,-32.38"
             style="fill:url(#linearGradient116);fill-opacity:1;fill-rule:nonzero;stroke:none"
             id="path124"
             inkscape:connector-curvature="0" /></g></g><g
         id="g126"><g
           id="g128"
           clip-path="url(#clipPath130)"><path
             d="m 2000.34,2813.72 c 1.41,1.97 2.73,3.83 4.05,5.6 -5.96,18.37 -15.13,36.37 -21.68,43.16 8.15,-11.08 11.98,-27.03 11.41,-47.41 -0.12,-5.3 3.72,-4.93 6.22,-1.35"
             style="fill:url(#linearGradient134);fill-opacity:1;fill-rule:nonzero;stroke:none"
             id="path142"
             inkscape:connector-curvature="0" /></g></g><g
         id="g144"><g
           id="g146"
           clip-path="url(#clipPath148)"><path
             d="m 2646.6,3010.05 0,0 c 0,-0.03 0,-0.03 0,-0.1 0,0.07 0,0.1 0,0.1"
             style="fill:url(#linearGradient152);fill-opacity:1;fill-rule:nonzero;stroke:none"
             id="path160"
             inkscape:connector-curvature="0" /></g></g><g
         id="g162"><g
           id="g164"
           clip-path="url(#clipPath166)"><path
             d="m 2234.7,2617.92 c 3.53,-1.88 7.11,-3.1 10.84,-3.74 -1.29,4.91 -1.88,9.75 -1.93,13.89 -0.4,35.65 10.69,71.32 39.09,106.2 34.42,42.42 70.59,63.53 95.74,51.88 -1.27,9.32 -6.14,17.4 -16.81,22.42 -25.11,12.07 -63.37,-10.02 -97.98,-52.63 -28.38,-34.87 -43.71,-70.35 -44.27,-104.92 -0.22,-12.29 4.47,-27.47 15.32,-33.1"
             style="fill:url(#linearGradient170);fill-opacity:1;fill-rule:nonzero;stroke:none"
             id="path178"
             inkscape:connector-curvature="0" /></g></g><g
         id="g180"><g
           id="g182"
           clip-path="url(#clipPath184)"><path
             d="m 1701.37,2802.03 c 4.45,1.95 5.02,4.49 4.18,8.46 -1.49,6.78 -6.24,23.63 -7.64,27.61 0,0 0,0 -0.02,0.01 1.09,-3.7 0.15,-6.55 -4.28,-8.22 -38.56,-14.62 -77.2,-37.35 -103.93,-73.11 -30.27,-40.63 -38.47,-89.55 -18.16,-117.68 4.81,-6.61 10.55,-11.47 16.93,-14.67 -10.93,33.64 -3,78.76 22.7,113.49 26.48,35.86 56.26,49.4 90.22,64.11"
             style="fill:url(#linearGradient188);fill-opacity:1;fill-rule:nonzero;stroke:none"
             id="path196"
             inkscape:connector-curvature="0" /></g></g><g
         id="g198"><g
           id="g200"
           clip-path="url(#clipPath202)"><path
             d="m 2131.11,2677.66 c -9.18,-6.57 -21.15,-13.82 -36.05,-19.35 -18.31,-6.83 -26.9,-9.41 -43.88,-9.22 -21.34,0.14 -40.58,9.22 -54.16,30.35 -7.55,11.43 -10.67,28.84 -11.41,41.57 -0.08,1.41 -1.94,3.91 -3.95,0.68 -35.92,-54.84 -69.43,-107.9 -105.04,-163.64 -1.83,-2.59 -3.48,-4.26 -7.15,-4.44 -22.04,0 -46.11,0.06 -70.39,-0.06 -2.56,0 -4.31,1.15 -4.87,2.9 1.92,-8.51 4.99,-23.9 5.85,-27.49 0.58,-2.44 2.42,-3.69 5.13,-3.69 26.06,0 58.05,0 79.76,0.11 3.2,0.18 5.45,2 7.15,4.44 32.38,50.7 66.97,105.75 100.05,156.55 7.29,-25.59 10.99,-37.55 24.49,-49.58 13.73,-12.33 26.4,-15.5 45.14,-15.7 17,-0.19 33.73,6.6 53.6,14.89 7.13,2.95 13.54,6.65 19.27,10.31 0,9.43 0.94,18.87 2.62,27.9 0.13,0.96 -0.81,7.19 -6.16,3.47"
             style="fill:url(#linearGradient206);fill-opacity:1;fill-rule:nonzero;stroke:none"
             id="path214"
             inkscape:connector-curvature="0" /></g></g><g
         id="g216"><g
           id="g218"
           clip-path="url(#clipPath220)"><path
             d="m 2601.13,2696.94 c 0,-1.34 -0.59,-2.53 -1.32,-3.46 -34.26,-41.87 -72.19,-81.4 -108.44,-109.38 -56.46,-43.7 -112.72,-54.78 -140.6,-26.8 -10.4,10.43 -16.08,25.36 -16.79,37.93 -0.33,6.83 -3.82,7.16 -7.08,3.99 -33.27,-32.93 -91.09,-69.4 -143.72,-43.45 -27.16,13.41 -41.36,38.59 -46.44,66.28 0.04,-0.31 0.14,-0.64 0.19,-0.96 3.34,-19.68 7.6,-47.99 16.85,-65.48 6.02,-11.53 19.46,-24.49 27.68,-28.56 46.7,-23.05 113.38,3.09 156.2,44.29 0.45,0.52 0.54,0.56 1.17,1.27 1.95,-7.45 4.31,-16.41 4.69,-17.62 2.93,-9.56 7.49,-18.27 11.51,-22.85 29.29,-33.12 91.51,-18.08 156.25,32.03 36.17,27.96 63,56.07 95.85,94.31 1.31,1.6 1.21,3.94 0.47,7.47 -1.88,8.34 -4.87,23.44 -6.47,30.99"
             style="fill:url(#linearGradient224);fill-opacity:1;fill-rule:nonzero;stroke:none"
             id="path232"
             inkscape:connector-curvature="0" /></g></g><g
         id="g234"><g
           id="g236"
           clip-path="url(#clipPath238)"><path
             d="m 2130.54,2734.27 c 17.35,9.39 32.6,29.28 30.66,61.57 -0.97,16.05 -5.66,32.61 -13.15,45.98 5.09,-9.81 7.23,-21.14 5.4,-33.03 -3.29,-20.86 -14.58,-39.24 -33.79,-48.76 -16.28,-7.95 -35.3,-6.59 -48.59,5.31 -4.16,3.79 -7.18,8.36 -9.29,13.18 3.43,-15.75 6.38,-27.34 10.51,-33.53 12.59,-18.9 34.29,-23.67 58.25,-10.72"
             style="fill:url(#linearGradient242);fill-opacity:1;fill-rule:nonzero;stroke:none"
             id="path250"
             inkscape:connector-curvature="0" /></g></g><g
         id="g252"><g
           id="g254"
           clip-path="url(#clipPath256)"><path
             d="m 2654.51,2971.97 c -0.66,3.03 -7.26,35 -7.91,37.9 0.22,-0.84 0,-1.87 -0.58,-2.98 -10.95,-18.94 -221.86,-340.04 -235.18,-373.27 -4.24,-10.51 -4.73,-18.54 -0.43,-24.33 4.34,-5.84 10.7,-8.09 17.92,-7.95 0.69,4.03 2.24,8.63 4.2,13.48 13.33,33.29 210.85,333.47 221.69,352.47 0.94,1.62 0.6,3.46 0.29,4.68"
             style="fill:url(#linearGradient260);fill-opacity:1;fill-rule:nonzero;stroke:none"
             id="path268"
             inkscape:connector-curvature="0" /></g></g><g
         id="g270"><g
           id="g272"
           clip-path="url(#clipPath274)"><path
             d="m 1770.5,2857.44 c 0.61,-0.63 1.13,-1.32 1.66,-2.03 12.7,-18.88 19.61,-45.47 20.29,-72.92 0.79,-5.8 3.26,-5.94 6.1,-2.95 2.54,2.62 5.06,5.33 7.51,8.04 -3.7,14.76 -9.47,28.02 -15.38,40.79 -2.18,4.67 -11.87,21.23 -20.18,29.07"
             style="fill:url(#linearGradient278);fill-opacity:1;fill-rule:nonzero;stroke:none"
             id="path286"
             inkscape:connector-curvature="0" /></g></g><g
         id="g288"><g
           id="g290"
           clip-path="url(#clipPath292)"><path
             d="m 1886.59,2764.39 c 14.8,12.63 30.98,20.82 41.14,16.9 6.09,15.71 3.2,24.37 -3.3,28.59 -9.94,6.44 -29.7,-3.26 -46.38,-15.97 -45.51,-34.47 -83.73,-88.16 -103.09,-112.16 -11.42,-14.15 -22.18,-34.97 -52.01,-67.34 -46.91,-50.93 -109.08,-80.18 -169.01,-59.97 -32.74,11.02 -56.42,37.36 -65.47,69.62 -1.8,6.27 -5.29,8.01 -8.68,3.88 -9.7,-12.06 -29.5,-29.83 -46.05,-41.05 -1.79,-1.29 -6.26,-3.94 -10.11,-2.05 -3.47,1.56 -15.77,18.92 -18.18,23.92 -0.3,0.53 -0.49,1.13 -0.57,1.64 0,-0.04 0,-0.1 0,-0.2 4.28,-21.38 4.83,-23.84 10.68,-33.7 6.64,-10.93 13.07,-18.61 14.51,-19.24 3.88,-1.96 7.8,-0.16 9.75,0.87 12.83,6.6 37.9,25.89 48.69,39.31 3.27,3.11 6.41,1.02 7.44,-2.25 4.53,-14.3 11.14,-25.33 18.52,-37.06 8.09,-12.99 24.28,-26.52 45.25,-32.3 27.18,-7.58 56.49,-8.97 94.96,5.78 30.88,11.83 63.23,35.89 88.15,62.93 29.87,32.39 40.65,53.19 52.01,67.37 19.33,23.99 49.48,66.41 91.75,102.48"
             style="fill:url(#linearGradient296);fill-opacity:1;fill-rule:nonzero;stroke:none"
             id="path304"
             inkscape:connector-curvature="0" /></g></g><g
         id="g306"><g
           id="g308"
           clip-path="url(#clipPath310)"><path
             d="m 1058.45,2680.64 c -6.03,23.72 0.5,49.29 10.02,68.4 15.18,30.56 36.44,45.15 57.42,58.36 9.02,5.71 13.01,11.26 7.65,26.15 -1.53,4.22 -2.39,11.87 -4.06,18.64 0.53,-6.62 -2.71,-12.33 -8.6,-15.33 -25.58,-13.06 -56.36,-35.41 -71.59,-65.94 -12.36,-24.92 -14.85,-54.96 4.01,-83.56 1.58,-2.32 3.28,-4.59 5.15,-6.72"
             style="fill:url(#linearGradient314);fill-opacity:1;fill-rule:nonzero;stroke:none"
             id="path322"
             inkscape:connector-curvature="0" /></g></g><g
         id="g324"><g
           id="g326"
           clip-path="url(#clipPath328)"><path
             d="m 1237.54,3000.94 c -5.24,36.18 21.85,95.37 92.96,118.85 93,30.67 196.69,11.3 280.04,-6.53 11.65,7.3 21.85,12.33 32.06,17.9 5.07,2.64 -0.65,5.82 -2.19,5.82 -107.53,20.2 -219.3,46.36 -326.1,6.81 -73.95,-27.6 -106.36,-86.25 -90.76,-125.44 3.01,-7.48 7.81,-13.25 13.99,-17.41"
             style="fill:url(#linearGradient332);fill-opacity:1;fill-rule:nonzero;stroke:none"
             id="path340"
             inkscape:connector-curvature="0" /></g></g><g
         id="g342"><g
           id="g344"
           clip-path="url(#clipPath346)"><path
             d="m 1521.76,2886.32 c 35.42,4.41 67.19,6.39 98.49,9.36 9.32,0.88 16.43,1.72 19.83,-1.66 11.32,-11.31 24.43,-21.64 33.14,-26.7 5.78,-0.05 10.64,-1.31 14.04,-4.39 3.63,0.51 7,2.52 9.15,4.61 4.06,3.98 4.24,8.61 3.55,12.6 -1.4,7.71 -3.47,22.95 -5.96,27.33 1.7,-3.34 0.63,-8.12 -2.77,-11.92 -2.48,-2.84 -6.34,-5.5 -11.3,-5.4 -4.02,0.08 -6.46,1.46 -11.57,4.24 -10.49,5.68 -23.59,15.01 -32.32,26.02 -2.99,3.72 -4.49,3.8 -11.93,3.4 -33.5,-1.93 -85.72,-6.99 -121.11,-11.41 -8.56,-1.06 -9.82,-2.67 -11.59,-5.63 -56.41,-93.03 -116.64,-193.34 -182.77,-260.5 -70.93,-72.01 -129.89,-90.97 -192.48,-91.45 -72.29,-0.51 -136.59,40.46 -152.801,112.4 8.688,-40.16 34.614,-88.6 64.551,-109.69 30.45,-21.48 60.48,-28.6 95.51,-29.23 71.17,-1.25 136.17,28.11 205.08,98.11 66.16,67.14 123.45,160.93 179.9,253.95 1.92,3.29 3.87,4.75 13.36,5.96"
             style="fill:url(#linearGradient350);fill-opacity:1;fill-rule:nonzero;stroke:none"
             id="path358"
             inkscape:connector-curvature="0" /></g></g><g
         id="g360"><g
           id="g362"
           clip-path="url(#clipPath364)"><path
             d="m 1405.6,2898.22 c -31.99,-0.88 -59.88,-10.42 -86.99,-30.68 -7.81,-5.68 -19.04,-4.88 -23.96,2.61 -1.64,2.54 -2.43,5.3 -2.51,8.1 -0.71,-12.05 4.13,-29.77 8.05,-35.73 4.29,-6.58 16.34,-9.82 25.92,-2.75 21.56,15.92 41.05,25.18 62.85,29.32 5.62,7.65 11.71,16.14 18.62,25.7 0.57,0.76 0.73,1.77 0.48,2.26 -0.4,0.85 -1.07,1.09 -2.46,1.17"
             style="fill:url(#linearGradient368);fill-opacity:1;fill-rule:nonzero;stroke:none"
             id="path376"
             inkscape:connector-curvature="0" /></g></g><g
         id="g378"><g
           id="g380"
           clip-path="url(#clipPath382)"><path
             d="m 2217.79,3163.71 c 0.47,-0.66 0.88,-1.37 1.29,-2.12 -0.41,0.81 -0.82,1.55 -1.29,2.12"
             style="fill:url(#linearGradient386);fill-opacity:1;fill-rule:nonzero;stroke:none"
             id="path394"
             inkscape:connector-curvature="0" /></g></g><g
         id="g396"><g
           id="g398"
           clip-path="url(#clipPath400)"><path
             d="m 1521.42,2951.32 c -1.29,-1.53 -0.59,-3 1.64,-2.84 10.07,0.5 19.79,0.95 29.42,1.47 34.79,54.44 71.98,85.69 128.85,127.68 4.22,3.17 8.47,5.44 7.08,17.55 114.19,-25.34 201.05,-67.36 348.53,-67.79 43.99,-0.1 106.07,14.56 139.45,34.7 38.38,23.07 48.57,40.02 49.98,57.98 0.43,5.59 -1.02,13.9 -1.96,18.22 -1.28,6.07 -2.16,13.8 -3.9,19.56 0.62,-2.36 0.88,-5.02 0.68,-7.91 -1.17,-20.61 -17.12,-40.44 -56.43,-61.89 -44.71,-24.52 -91.48,-31.95 -140.33,-32.35 -118.12,-0.98 -228.15,45.06 -342.01,69.8 0.16,-4.98 1.44,-10.93 -2.74,-14.07 -63.06,-46.53 -120.07,-93.77 -158.26,-160.11"
             style="fill:url(#linearGradient404);fill-opacity:1;fill-rule:nonzero;stroke:none"
             id="path412"
             inkscape:connector-curvature="0" /></g></g><g
         id="g414"><g
           id="g416"
           clip-path="url(#clipPath418)"><path
             d="m 1675.15,2983.34 c 4.72,4.16 10.61,6.12 15.65,5.23 4.35,8.68 5.61,19.03 0.32,23.59 -5.12,4.44 -13.24,3.63 -19.81,-1.07 -1.42,-1.36 -2.99,-2.71 -4.56,-4.12 -11.27,-11.69 -14.7,-27.13 -13.04,-38.82 0.9,-4.77 2.76,-5.69 4.92,-5.29 2.13,0.44 4.3,1.16 6.51,2.06 0.82,6.44 3.52,12.68 10.01,18.42"
             style="fill:url(#linearGradient422);fill-opacity:1;fill-rule:nonzero;stroke:none"
             id="path430"
             inkscape:connector-curvature="0" /></g></g><g
         id="g432"><g
           id="g434"
           clip-path="url(#clipPath436)"><path
             d="m 1722.7,2944.55 c 5.43,11.95 8.38,21.36 6.03,41.86 -1.69,14.36 -4.59,27.35 -8.43,34.04 7.38,-15.04 4.4,-34.36 -3.59,-49.77 -10.82,-20.73 -28.68,-31.8 -45.83,-37.18 0,0 -3.59,-0.8 -3.07,-4.06 0.44,-3.72 12.6,-11.42 20.19,-16.78 1.11,0.29 2.72,0.93 2.72,0.93 8.82,3.42 23.48,12.34 31.98,30.96"
             style="fill:url(#linearGradient440);fill-opacity:1;fill-rule:nonzero;stroke:none"
             id="path448"
             inkscape:connector-curvature="0" /></g></g><g
         id="g450"><g
           id="g452"
           clip-path="url(#clipPath454)"><path
             d="m 1198.13,2905.16 c 15.76,-9.84 35.19,-15.28 57.43,-14.53 75.75,2.58 133.15,64.98 152.18,117.75 5.1,14.24 1.15,29.48 -1.25,39.77 -0.95,3.98 -2.26,12.94 -5.14,19.35 l -0.03,0 c 2.2,-5.25 2.2,-13.04 -1.96,-22.83 -31.25,-73.46 -90.96,-131.72 -163.68,-134.17 -43.84,-1.45 -76.66,21 -92.01,54.19 11.25,-24.77 34.28,-46.86 54.46,-59.53"
             style="fill:url(#linearGradient458);fill-opacity:1;fill-rule:nonzero;stroke:none"
             id="path466"
             inkscape:connector-curvature="0" /></g></g><path
         d="m 1800,3391.98 c -799.32,0 -1440.059,-239.59 -1440.059,-539.98 0,-298.56 646.019,-540 1440.059,-540 794.06,0 1440.08,242.25 1440.08,540 0,297.75 -646.02,539.98 -1440.08,539.98 z M 369.84,2846.05 c -0.293,63.18 27.547,126.02 86.094,185.08 206.152,207.96 746.336,348.5 1341.646,350.98 788.62,3.27 1431.29,-231.88 1432.63,-524.18 0.29,-63.17 -29.26,-125.16 -87.82,-184.22 -206.18,-207.98 -744.66,-349.37 -1339.94,-351.83 -788.62,-3.27 -1431.282,231.87 -1432.61,524.17 z m 2861.42,47.65 c 0.54,-2.61 0.94,-5.23 1.38,-7.84 -0.38,2.62 -0.9,5.23 -1.38,7.84"
         style="fill:#333333;fill-opacity:1;fill-rule:nonzero;stroke:none"
         id="path468"
         inkscape:connector-curvature="0" /><g
         id="g470"><g
           id="g472"
           clip-path="url(#clipPath474)"><path
             d="m 452.738,3034.3 c 207.305,209.13 748.032,349.83 1344.822,352.32 82.69,0.34 163.73,-1.98 242.65,-6.68 -78.14,4.93 -158.37,7.54 -240.21,7.54 -796.1,0 -1435.699,-238.71 -1435.699,-535.48 0,-14.1 1.633,-28.06 4.512,-41.88 -2.176,11.86 -3.422,23.83 -3.477,35.92 -0.293,64.04 28.359,128.69 87.402,188.26"
             style="fill:url(#linearGradient478);fill-opacity:1;fill-rule:nonzero;stroke:none"
             id="path488"
             inkscape:connector-curvature="0" /></g></g><g
         id="g490"><g
           id="g492"
           clip-path="url(#clipPath494)"><path
             d="m 3145.6,2670.41 c -206.58,-208.39 -747.12,-350.55 -1343.12,-353.02 -84.29,-0.35 -166.93,1.91 -247.25,6.79 79.53,-5.12 161.34,-7.66 244.78,-7.66 791.59,0 1435.59,241.62 1435.59,535.34 0,11.21 -1.04,22.34 -2.87,33.37 1.27,-9.07 1.95,-18.21 1.99,-27.41 0.29,-64.03 -30.06,-127.85 -89.12,-187.41"
             style="fill:url(#linearGradient498);fill-opacity:1;fill-rule:nonzero;stroke:none"
             id="path508"
             inkscape:connector-curvature="0" /></g></g><g
         id="g510"><g
           id="g512"
           clip-path="url(#clipPath514)"><path
             d="m 1799.92,2379.2 c -750.51,0 -1358.904,211.74 -1358.904,472.94 0,261.24 608.394,472.95 1358.904,472.95 750.44,0 1358.81,-211.71 1358.81,-472.95 0,-261.2 -608.37,-472.94 -1358.81,-472.94 z m 0,904.93 c -724.14,0 -1311.115,-193.37 -1311.115,-431.99 0,-238.62 586.975,-432.02 1311.115,-432.02 724.14,0 1311.08,193.4 1311.08,432.02 0,238.62 -586.94,431.99 -1311.08,431.99"
             style="fill:url(#linearGradient518);fill-opacity:1;fill-rule:nonzero;stroke:none"
             id="path528"
             inkscape:connector-curvature="0" /></g></g><g
         id="g530"><g
           id="g532"
           clip-path="url(#clipPath534)"><path
             d="m 2646.02,3006.89 c 1.87,3.3 -0.1,5.71 -4.26,5.71 -21.7,0 -50.17,-0.05 -72.78,-0.05 -5.39,0 -8.17,-0.66 -10.71,-5.66 -8.34,-15.99 -110.05,-168.41 -128.98,-198 -3.18,-4.51 -7.08,-3.89 -7.53,1.25 -1.92,17.57 -17.1,37.78 -41.02,47.45 -18.23,7.4 -36.05,8.74 -54.58,6.28 -33.45,-4.49 -63.25,-22.15 -89.45,-42.05 -39.49,-30.02 -73.56,-68.93 -117.54,-97.68 -24.01,-15.64 -56.88,-29.3 -78.89,-8.93 -19.91,18.46 -17.66,59.47 12.79,91.18 3.22,3.32 7.07,0.54 6.46,-2.44 -2.87,-14.35 0.67,-28.61 11.54,-38.61 13.29,-11.9 32.31,-13.26 48.59,-5.31 19.21,9.52 30.5,27.9 33.79,48.76 5.1,32.36 -19.82,60.91 -50.99,63.19 -25.32,1.78 -49.6,-7.03 -73.26,-26.56 -11.86,-9.83 -18.6,-17.11 -28.86,-31.7 -2.5,-3.58 -6.34,-3.95 -6.22,1.35 1.19,41.43 -15.96,64.75 -50.21,65.5 -26.59,0.63 -54.99,-13.78 -77.13,-31.44 -24.27,-19.49 -45.49,-45.32 -68.23,-69.59 -2.84,-2.99 -5.31,-2.85 -6.1,2.95 -0.68,27.45 -7.59,54.04 -20.29,72.92 -4.5,6.57 -13.95,9.82 -21.9,5.38 -3.67,-2.01 -16.46,-7.88 -25.74,-15.37 -4.62,-3.8 -6.41,-9.3 -4.39,-16.35 12.28,-41 9.57,-87.63 -7.06,-127.02 -15.27,-36.07 -44.97,-68.6 -79.86,-79.61 -22.99,-7.28 -46.9,-3.72 -61.69,16.66 -20.31,28.13 -12.11,77.05 18.16,117.68 26.73,35.76 65.37,58.49 103.93,73.11 4.54,1.75 5.47,4.66 4.19,8.52 -2.1,6.35 -5.43,14.97 -6.81,18.91 -3.53,9.41 -13.44,10.94 -25.52,9.62 -28.01,-3.26 -53.28,-12.86 -78.24,-26.22 -65.35,-35 -98.12,-102.74 -112.5,-138.98 -6.9,-17.4 -12.82,-28.27 -20.46,-37.9 -10.31,-12.95 -23.23,-24.74 -46.89,-45.51 -2.14,-1.9 -3.73,-5.88 -1.93,-9.57 2.41,-5 14.71,-22.36 18.18,-23.92 3.85,-1.89 8.32,0.76 10.11,2.05 16.55,11.22 36.35,28.99 46.05,41.05 3.39,4.13 6.88,2.39 8.68,-3.88 9.05,-32.26 32.73,-58.6 65.47,-69.62 59.93,-20.21 122.1,9.04 169.01,59.97 29.83,32.37 40.59,53.19 52.01,67.34 19.36,24 57.58,77.69 103.09,112.16 16.68,12.71 36.44,22.41 46.38,15.97 7.96,-5.15 10.54,-17.17 -2.25,-40.43 -46.4,-84.72 -114.67,-184.27 -127.19,-208.41 -2.29,-4.19 -0.29,-7.49 4.09,-7.49 24.28,0.12 48.35,0.06 70.39,0.06 3.67,0.18 5.32,1.85 7.15,4.44 35.61,55.74 69.12,108.8 105.04,163.64 2.01,3.23 3.87,0.73 3.95,-0.68 0.74,-12.73 3.86,-30.14 11.41,-41.57 13.58,-21.13 32.82,-30.21 54.16,-30.35 16.98,-0.19 25.57,2.39 43.88,9.22 14.9,5.53 26.87,12.78 36.05,19.35 5.35,3.72 6.29,-2.51 6.16,-3.47 -8.24,-44.25 1.93,-96.68 45.91,-118.42 52.63,-25.95 110.45,10.52 143.72,43.45 3.26,3.17 6.75,2.84 7.08,-3.99 0.71,-12.57 6.39,-27.5 16.79,-37.93 27.88,-27.98 84.14,-16.9 140.6,26.8 36.25,27.98 74.18,67.51 108.44,109.38 1.28,1.61 2.22,4.22 -0.23,6.85 -5.22,5.46 -12.77,11.71 -17.94,16.53 -2.36,2 -5.82,1.42 -7.81,-0.08 -35.12,-33.4 -66.73,-71.49 -112.42,-102.99 -15.41,-10.75 -39.96,-19.43 -51,-4.5 -4.3,5.79 -3.81,13.82 0.43,24.33 13.32,33.23 224.23,354.33 235.18,373.27 z m -278.79,-269.28 c 0.43,-2.46 3.63,-4.84 6.77,-5.97 1.1,-0.41 1.72,-1.21 0.47,-3.79 -8.97,-19.22 -17.21,-30.3 -28.45,-47 -10.34,-15.43 -21.99,-27.47 -36.09,-39.04 -21.27,-17.61 -50.81,-36.77 -75.23,-23.89 -10.85,5.63 -15.54,20.81 -15.32,33.1 0.56,34.57 15.89,70.05 44.27,104.92 34.61,42.61 72.87,64.7 97.98,52.63 25.98,-12.4 17.69,-42.48 6.07,-66.09 -0.88,-1.83 -0.93,-3.38 -0.47,-4.87"
             style="fill:url(#linearGradient538);fill-opacity:1;fill-rule:nonzero;stroke:none"
             id="path548"
             inkscape:connector-curvature="0" /></g></g><g
         id="g550"><g
           id="g552"
           clip-path="url(#clipPath554)"><path
             d="m 1116.16,2554.82 c -78.64,-0.57 -147.922,48.04 -155.867,132.17 -4.418,46.62 8.762,88.17 35.137,122.4 23.41,30.5 63.02,55.84 96.55,62.04 10.91,2 25.57,0.72 31.63,-6.5 9.51,-11.06 6.77,-23.21 -2.73,-28.07 -25.58,-13.06 -56.36,-35.41 -71.59,-65.94 -12.36,-24.92 -14.85,-54.96 4.01,-83.56 31.59,-47.69 119.62,-49 201.47,27.04 20.27,18.61 38.41,36.49 56.85,57.67 36.05,41.22 48.04,56.24 95.96,122.72 0.57,0.76 0.73,1.77 0.48,2.26 -0.4,0.85 -1.07,1.09 -2.46,1.17 -31.99,-0.88 -59.88,-10.42 -86.99,-30.68 -7.81,-5.68 -19.04,-4.88 -23.96,2.61 -5.47,8.46 -1.55,19.51 7.46,25.73 43.61,30.33 91.25,35.83 139.9,44.04 -0.04,0 3.38,-0.16 6.17,3.54 19.96,25.62 35.05,48.75 56.33,74.67 21.44,26.3 49.17,50.44 70.34,68.58 29.55,25.42 48.49,33.96 67.75,44.45 5.07,2.64 -0.65,5.82 -2.19,5.82 -107.53,20.2 -219.3,46.36 -326.1,6.81 -73.95,-27.6 -106.36,-86.25 -90.76,-125.44 11.08,-27.79 47.65,-32.31 81.87,-15.57 28.43,13.94 54.73,36.38 73.38,65.29 10.45,16.04 32.43,4.47 20.56,-23.4 -31.25,-73.46 -90.96,-131.72 -163.68,-134.17 -61.89,-2.02 -101.82,43.52 -101.69,99.69 0.23,110.79 123.59,183.76 253.21,194.67 156.1,12.91 303.95,-28.67 458.94,-47.48 118.75,-14.37 232.6,-14.68 351.96,12.75 14.11,3.06 24.01,-5.95 23.09,-20.19 -1.17,-20.61 -17.12,-40.44 -56.43,-61.89 -44.71,-24.52 -91.48,-31.95 -140.33,-32.35 -118.12,-0.98 -228.15,45.06 -342.01,69.8 0.16,-4.98 1.44,-10.93 -2.74,-14.07 -63.06,-46.53 -120.07,-93.77 -158.26,-160.11 -1.29,-1.53 -0.59,-3 1.64,-2.84 33.15,1.75 62.96,2.61 93.92,5.09 5.4,0.45 5.6,1.79 5.13,5.75 -2.73,22.87 3.94,48.94 24.06,66.88 20.58,18.47 46.37,20.57 63.46,7.27 19.44,-15.15 17.72,-42.38 7.08,-62.79 -10.82,-20.73 -28.68,-31.8 -45.83,-37.18 0,0 -3.59,-0.8 -3.07,-4.06 0.68,-5.23 24.04,-18.18 26.04,-21.63 1.93,-3.28 0.94,-8.37 -2.62,-12.26 -2.48,-2.84 -6.34,-5.5 -11.3,-5.4 -4.02,0.08 -6.46,1.46 -11.57,4.24 -10.49,5.68 -23.59,15.01 -32.32,26.02 -2.99,3.72 -4.49,3.8 -11.93,3.4 -33.5,-1.93 -85.72,-6.99 -121.11,-11.41 -8.56,-1.06 -9.82,-2.67 -11.59,-5.63 -56.41,-93.03 -116.64,-193.34 -182.77,-260.5 -70.93,-72.01 -129.89,-90.97 -192.48,-91.45 z m 537.55,413.33 c 0.9,-4.77 2.76,-5.69 4.92,-5.29 10.74,2.15 22.51,11 29.45,21.23 6.36,9.29 9.33,22.7 3.04,28.07 -5.64,4.82 -14.78,3.45 -21.55,-2.53 -13.49,-11.93 -17.6,-28.85 -15.86,-41.48 l 0,0"
             style="fill:url(#linearGradient558);fill-opacity:1;fill-rule:nonzero;stroke:none"
             id="path568"
             inkscape:connector-curvature="0" /></g></g></g></g></svg>