<?xml version="1.0" encoding="utf-8"?>
<!-- Generator: Adobe Illustrator 14.0.0, SVG Export Plug-In . SVG Version: 6.00 Build 43363)  -->
<!DOCTYPE svg PUBLIC "-//W3C//DTD SVG 1.1//EN" "http://www.w3.org/Graphics/SVG/1.1/DTD/svg11.dtd">
<svg version="1.1" id="Layer_1" xmlns="http://www.w3.org/2000/svg" xmlns:xlink="http://www.w3.org/1999/xlink" x="0px" y="0px"
	 width="612px" height="792px" viewBox="0 0 612 792" enable-background="new 0 0 612 792" xml:space="preserve">
<g>
	<polygon fill-rule="evenodd" clip-rule="evenodd" fill="#FFFFFF" points="209,300 401.756,300 401.756,492.756 209,492.756 
		209,300 	"/>
	<path fill-rule="evenodd" clip-rule="evenodd" fill="#BE4834" d="M245.971,366.695c3.116,0,6.798,0.284,7.931,0.85
		c0,0.85,0,3.682,0,3.965c0,3.965,2.266,4.532,2.266,4.532s0,1.699,0,3.682c0,2.55-0.567,4.249-0.567,4.249
		c-1.133,0.283-3.965,1.133-7.081,3.399c-2.266,1.7-4.249,4.249-4.249,6.798c0,1.699,0.283,2.832,0.85,3.965
		c0,0-1.133,0.566-3.116,0.566c-2.549-0.283-5.381-2.266-7.081-5.381c-2.266-3.965-3.399-8.781-5.948-8.781
		s-2.549,2.549-4.532,2.549c-2.266,0-3.683-3.682-4.249-5.382c-1.417-2.549-4.815-3.399-5.099-7.364h10.763
		c0-5.948,0-9.348,0-15.295c3.965,0,6.231,0,10.197,0v6.515c0.283,0.283,1.133,0.566,2.266,0.85l-1.133,5.098h-3.116l-1.133,4.532
		h3.116l-1.133,5.665c0,0.85-0.283,2.833,0,3.683c0.566,2.266,1.982,3.115,3.965,3.115c2.833,0,5.381-1.416,5.381-1.416l1.133-3.682
		c-0.566,0-1.417,0-1.983,0s-1.133,0-0.85-1.417l1.416-5.948h3.116l1.133-4.532h-3.115L245.971,366.695L245.971,366.695z"/>
	<polygon fill-rule="evenodd" clip-rule="evenodd" fill="#BE4834" points="239.74,368.395 243.705,368.395 240.589,383.124 
		236.624,383.124 239.74,368.395 	"/>
	<path fill-rule="evenodd" clip-rule="evenodd" fill="#BE4834" d="M242.572,363.013c1.132,0,2.266,0.85,2.266,2.266
		c0,1.133-1.134,1.983-2.266,1.983c-1.133,0-2.266-0.85-2.266-1.983C240.306,363.863,241.439,363.013,242.572,363.013
		L242.572,363.013z"/>
	<path fill-rule="evenodd" clip-rule="evenodd" fill="#040607" d="M341.141,381.141c2.266,0,3.682,0.283,3.965,0.566
		c0.566,0,0.283-0.283,0.566-0.566h0.283l1.416,3.965l-0.566,0.284c-0.85-1.133-2.549-2.266-5.381-2.266
		c-1.134,0-3.399,0.283-3.399,1.982c0,3.399,10.48,1.416,10.48,8.214c0,3.115-2.55,5.381-7.364,5.381c-1.7,0-3.116-0.283-4.532-0.85
		c-0.283,0-0.566,0.283-0.566,0.566l-0.566,0.283l-1.699-5.098l0.565-0.283c1.416,1.699,3.399,3.115,6.799,3.115
		c2.832,0,3.682-1.133,3.682-2.266c0-3.966-10.196-1.417-10.196-8.214C334.626,382.84,337.741,381.141,341.141,381.141
		L341.141,381.141z"/>
	<path fill-rule="evenodd" clip-rule="evenodd" fill="#040607" d="M282.226,398.418v-0.566c1.133-0.283,1.699-0.566,1.699-2.266
		v-11.613c0-1.699-0.566-1.983-1.699-2.266v-0.566h13.313l1.416,3.682l-0.566,0.283c-1.133-1.416-2.266-1.699-4.249-1.699
		c-0.283,0-3.115,0-3.115,0c-1.133,0-1.417,0.283-1.417,1.133v3.682h4.532c1.7,0,1.983-0.284,2.266-1.133h0.566v4.532h-0.566
		c-0.283-0.85-0.566-1.133-2.266-1.133h-4.532v4.532c0,1.133,0.283,1.133,1.417,1.133c0,0,3.682,0,3.965,0c1.7,0,3.116,0,4.532-1.7
		l0.283,0.284l-1.133,3.682H282.226L282.226,398.418z"/>
	<path fill-rule="evenodd" clip-rule="evenodd" fill="#040607" d="M277.978,395.586c0,1.699,0.566,1.982,1.416,2.266v0.566h-7.364
		v-0.566c0.85-0.283,1.699-0.566,1.699-2.266v-16.428c0-0.85-0.566-0.85-1.699-0.85c-3.682,0-5.099,0-6.515,1.416h-0.283
		l1.416-3.965h18.411l1.416,3.965h-0.566c-1.133-1.416-2.833-1.416-6.515-1.416c-1.133,0-1.416,0-1.416,0.85V395.586
		L277.978,395.586z"/>
	<path fill-rule="evenodd" clip-rule="evenodd" fill="#040607" d="M305.168,389.921l-4.815-6.231c-0.85-1.416-1.417-1.7-2.549-1.983
		v-0.566h7.931v0.566c-0.85,0-1.416,0.85-0.566,1.983l2.266,3.399l2.832-3.682c0.566-0.85,0.566-1.7-0.566-1.7v-0.566h6.515v0.566
		c-1.133,0.283-1.982,0.567-3.116,1.7l-3.965,5.665l4.815,6.797c0.566,0.85,1.133,1.416,1.133,1.416s0.85-0.283,1.982-3.115
		l5.382-13.029h3.398l6.231,14.729c0.283,0.85,1.134,1.699,1.982,1.982v0.566h-7.363v-0.566c0.566,0,1.699-0.283,0.849-1.982
		l-0.849-2.266h-7.082l-0.85,2.266c-0.85,1.699,0.566,1.982,0.85,1.982v0.566h-11.046v-0.566c0.566,0,1.982-0.566,0.85-1.982
		l-2.832-3.682l-2.833,3.965c-0.85,1.133,0,1.699,0.566,1.699v0.566h-6.515v-0.566c1.133-0.283,2.266-0.85,3.116-2.266
		L305.168,389.921L305.168,389.921z M323.296,384.54l-2.832,6.798h5.381L323.296,384.54L323.296,384.54z"/>
	<path fill-rule="evenodd" clip-rule="evenodd" fill="#040607" d="M216.514,400.967c0-1.699-0.85-1.982-1.7-2.266v-0.283h7.364
		v0.283c-0.566,0.283-1.417,0.566-1.417,2.266v17.279c0,1.699,0.85,1.982,1.417,2.266v0.566h-7.364v-0.566
		c0.85-0.283,1.7-0.566,1.7-2.266V400.967L216.514,400.967z"/>
	<path fill-rule="evenodd" clip-rule="evenodd" fill="#040607" d="M240.023,421.078h-0.566l-11.613-12.18v9.348
		c0,1.699,0.85,1.982,1.416,2.266v0.566h-5.098v-0.566c0.85-0.283,1.416-0.566,1.416-2.266v-11.613c0-1.699-0.566-1.982-1.416-2.266
		v-0.566h4.815l8.78,9.629v-6.797c0-1.699-0.566-1.982-1.416-2.266v-0.566h5.382v0.566c-0.85,0.283-1.7,0.566-1.7,2.266V421.078
		L240.023,421.078z"/>
	<path fill-rule="evenodd" clip-rule="evenodd" fill="#040607" d="M307.151,415.129c0,5.1-4.532,6.232-7.365,6.232
		c-3.116,0-7.647-1.133-7.647-5.949v-8.779c0-1.699-0.849-2.266-1.699-2.266v-0.566h7.081v0.566c-0.85,0-1.699,0.566-1.699,2.266
		v8.496c0,2.834,1.699,3.967,4.532,3.967c2.549,0,4.532-1.133,4.532-3.967v-8.496c0-1.699-0.85-1.982-1.7-2.266v-0.566h5.382v0.566
		c-0.85,0.283-1.416,0.566-1.416,2.266V415.129L307.151,415.129z"/>
	<path fill-rule="evenodd" clip-rule="evenodd" fill="#040607" d="M262.965,407.199c0-1.133,0-1.133-0.85-1.133
		c-2.832,0-3.398,0-5.098,1.982l-0.283-0.283l1.133-3.965h14.162l1.416,3.965l-0.566,0.283c-1.416-1.982-1.982-1.982-4.815-1.982
		c-0.85,0-1.133,0-1.133,1.133v11.047c0,1.699,0.567,1.982,1.7,2.266v0.566h-7.081v-0.566c1.133-0.283,1.416-0.566,1.416-2.266
		V407.199L262.965,407.199z"/>
	<path fill-rule="evenodd" clip-rule="evenodd" fill="#040607" d="M249.937,403.518c1.982,0,3.399,0.566,3.682,0.566
		c0.566,0.283,0.566-0.283,0.566-0.283l0.566-0.283l1.133,4.248h-0.567c-0.85-0.85-2.266-1.982-5.098-1.982
		c-1.417,0-3.682,0.283-3.682,1.982c0,3.115,10.763,1.416,10.763,8.213c0,3.117-2.549,5.1-7.364,5.1
		c-1.983,0-3.399-0.283-4.815-0.566c-0.283,0-0.283,0.283-0.567,0.283c0,0.283-0.566,0.283-0.566,0.283l-1.7-4.816l0.567-0.283
		c1.416,1.701,3.399,3.117,6.798,3.117c2.832,0,3.682-1.133,3.682-2.266c0-3.967-10.197-1.418-10.197-8.215
		C243.139,405.5,246.538,403.518,249.937,403.518L249.937,403.518z"/>
	<path fill-rule="evenodd" clip-rule="evenodd" fill="#040607" d="M330.094,418.246c0,1.699,0.85,1.982,1.699,2.266v0.566h-7.081
		v-0.566c0.85-0.283,1.7-0.566,1.7-2.266v-8.215l-6.231,11.33h-0.567l-6.23-11.613v8.498c0,1.699,0.85,1.982,1.699,2.266v0.566
		H309.7v-0.566c0.566-0.283,1.416-0.566,1.416-2.266v-11.613c0-1.699-0.85-1.982-1.416-2.266v-0.566h5.382l5.665,11.328
		l6.231-11.328h4.814v0.566c-0.85,0.283-1.699,0.566-1.699,2.266V418.246L330.094,418.246z"/>
	<path fill-rule="evenodd" clip-rule="evenodd" fill="#040607" d="M365.782,421.078h-0.566l-11.613-12.18v9.348
		c0,1.699,0.85,1.982,1.416,2.266v0.566h-5.381v-0.566c0.85-0.283,1.699-0.566,1.699-2.266v-11.613c0-1.699-0.566-1.982-1.699-2.266
		v-0.566h5.098l8.781,9.629v-6.797c0-1.699-0.851-1.982-1.699-2.266v-0.566h5.381v0.566c-0.566,0.283-1.416,0.566-1.416,2.266
		V421.078L365.782,421.078z"/>
	<path fill-rule="evenodd" clip-rule="evenodd" fill="#040607" d="M333.776,421.078v-0.566c0.85-0.283,1.416-0.85,1.416-2.266
		v-11.613c0-1.699-0.566-1.982-1.416-2.266v-0.566h13.313l1.132,3.682l-0.283,0.283c-1.133-1.416-2.549-1.699-4.248-1.699
		c-0.283,0-3.399,0-3.399,0c-0.85,0-1.133,0.283-1.133,1.133v3.682h4.249c1.699,0,2.266-0.566,2.266-1.133h0.566v4.531h-0.566
		c0-0.85-0.566-1.133-2.266-1.133h-4.249v4.533c0,0.85,0.283,1.133,1.133,1.133c0,0,3.683,0,3.966,0c1.699,0,3.398,0,4.531-1.699
		l0.567,0.283l-1.417,3.682H333.776L333.776,421.078z"/>
	<path fill-rule="evenodd" clip-rule="evenodd" fill="#040607" d="M373.713,407.199c0-1.133-0.283-1.133-0.85-1.133
		c-3.116,0-3.399,0-5.099,1.982l-0.283-0.283l1.133-3.965h14.162l1.416,3.965l-0.566,0.283c-1.416-1.982-1.982-1.982-4.814-1.982
		c-0.85,0-1.134,0-1.134,1.133v11.047c0,1.699,0.567,1.982,1.7,2.266v0.566h-7.081v-0.566c0.85-0.283,1.416-0.566,1.416-2.266
		V407.199L373.713,407.199z"/>
	<path fill-rule="evenodd" clip-rule="evenodd" fill="#040607" d="M391.557,403.518c1.983,0,3.399,0.566,3.966,0.566
		c0.283,0.283,0.283-0.283,0.283-0.283c0.283,0,0.566-0.283,0.566-0.283l1.133,4.248h-0.283c-0.85-0.85-2.549-1.982-5.382-1.982
		c-1.416,0-3.398,0.283-3.398,1.982c0,3.115,10.479,1.416,10.479,8.213c0,3.117-2.549,5.1-7.364,5.1
		c-1.982,0-3.398-0.283-4.814-0.566c-0.283,0-0.283,0.283-0.283,0.283c-0.283,0.283-0.566,0.283-0.566,0.283l-1.983-4.816
		l0.566-0.283c1.417,1.701,3.683,3.117,6.799,3.117c2.832,0,3.682-1.133,3.682-2.266c0-3.967-10.196-1.418-10.196-8.215
		C384.76,405.5,388.158,403.518,391.557,403.518L391.557,403.518z"/>
	<path fill-rule="evenodd" clip-rule="evenodd" fill="#040607" d="M282.792,403.801c3.682,0,6.515,1.416,6.515,4.531
		c0,3.398-3.116,3.965-4.815,4.248c4.532,1.699,4.815,7.648,7.647,7.648v0.283c-0.566,0.283-1.133,0.566-2.549,0.566
		c-6.231,0-4.815-7.648-8.78-7.648h-1.983v4.816c0,1.699,0.566,1.982,1.416,2.266v0.566h-6.798v-0.566
		c0.85-0.283,1.417-0.566,1.417-2.266v-11.613c0-1.699-0.566-1.982-1.417-2.266v-0.566H282.792L282.792,403.801z M278.827,411.447
		h2.266c1.983,0,4.249-0.85,4.249-2.832c0-1.133-0.849-2.832-3.399-2.832h-1.982c-0.85,0-1.133,0.283-1.133,1.416V411.447
		L278.827,411.447z"/>
</g>
</svg>
